%TF.GenerationSoftware,KiCad,Pcbnew,10.0.6*%
%TF.CreationDate,2026-09-18T17:57:53+05:30*%
%TF.ProjectId,blare,556e7469-746c-4656-942e-6b696361645f,rev?*%
%TF.SameCoordinates,Original*%
%TF.FileFunction,Soldermask,Top*%
%TF.FilePolarity,Negative*%
%FSLAX46Y46*%
G04 Gerber Fmt 4.6, Leading zero omitted, Abs format (unit mm)*
G04 Created by KiCad (PCBNEW 10.0.6) date 2026-09-18 17:57:53*
%MOMM*%
%LPD*%
G01*
G04 APERTURE LIST*
%ADD10C,1.700000*%
%ADD11C,4.000000*%
%ADD12C,2.200000*%
%ADD13C,3.200000*%
%ADD14R,1.700000X1.700000*%
%ADD15R,2.000000X2.000000*%
%ADD16C,2.000000*%
G04 APERTURE END LIST*
D10*
%TO.C,SW4*%
X94990000Y-107120000D03*
D11*
X100070000Y-107120000D03*
D10*
X105150000Y-107120000D03*
D12*
X102610000Y-102040000D03*
X96260000Y-104580000D03*
%TD*%
D13*
%TO.C,H2*%
X84000000Y-123000000D03*
%TD*%
D10*
%TO.C,SW1*%
X95380000Y-84080000D03*
D11*
X100460000Y-84080000D03*
D10*
X105540000Y-84080000D03*
D12*
X103000000Y-79000000D03*
X96650000Y-81540000D03*
%TD*%
D10*
%TO.C,SW6*%
X142840000Y-107080000D03*
D11*
X147920000Y-107080000D03*
D10*
X153000000Y-107080000D03*
D12*
X150460000Y-102000000D03*
X144110000Y-104540000D03*
%TD*%
D13*
%TO.C,H3*%
X166000000Y-123000000D03*
%TD*%
D10*
%TO.C,SW5*%
X118840000Y-107080000D03*
D11*
X123920000Y-107080000D03*
D10*
X129000000Y-107080000D03*
D12*
X126460000Y-102000000D03*
X120110000Y-104540000D03*
%TD*%
D13*
%TO.C,H4*%
X166000000Y-51000000D03*
%TD*%
D10*
%TO.C,SW3*%
X143380000Y-84080000D03*
D11*
X148460000Y-84080000D03*
D10*
X153540000Y-84080000D03*
D12*
X151000000Y-79000000D03*
X144650000Y-81540000D03*
%TD*%
D13*
%TO.C,H1*%
X84000000Y-51000000D03*
%TD*%
D10*
%TO.C,SW2*%
X119380000Y-84080000D03*
D11*
X124460000Y-84080000D03*
D10*
X129540000Y-84080000D03*
D12*
X127000000Y-79000000D03*
X120650000Y-81540000D03*
%TD*%
D14*
%TO.C,J1*%
X156350000Y-57000000D03*
D10*
X153810000Y-57000000D03*
X151270000Y-57000000D03*
X148730000Y-57000000D03*
X146190000Y-57000000D03*
X143650000Y-57000000D03*
X141110000Y-57000000D03*
X138570000Y-57000000D03*
%TD*%
D15*
%TO.C,BZ1*%
X102260000Y-57000000D03*
D16*
X94660000Y-57000000D03*
%TD*%
M02*
