%TF.GenerationSoftware,KiCad,Pcbnew,10.0.6*%
%TF.CreationDate,2026-09-18T17:57:53+05:30*%
%TF.ProjectId,blare,556e7469-746c-4656-942e-6b696361645f,rev?*%
%TF.SameCoordinates,Original*%
%TF.FileFunction,Copper,L1,Top*%
%TF.FilePolarity,Positive*%
%FSLAX46Y46*%
G04 Gerber Fmt 4.6, Leading zero omitted, Abs format (unit mm)*
G04 Created by KiCad (PCBNEW 10.0.6) date 2026-09-18 17:57:53*
%MOMM*%
%LPD*%
G01*
G04 APERTURE LIST*
%ADD10C,0.300000*%
%TA.AperFunction,NonConductor*%
%ADD11C,0.300000*%
%TD*%
%TA.AperFunction,NonConductor*%
%ADD12C,0.200000*%
%TD*%
%TA.AperFunction,ComponentPad*%
%ADD13C,2.200000*%
%TD*%
%TA.AperFunction,ComponentPad*%
%ADD14R,1.700000X1.700000*%
%TD*%
%TA.AperFunction,ComponentPad*%
%ADD15C,1.700000*%
%TD*%
%TA.AperFunction,ComponentPad*%
%ADD16R,2.000000X2.000000*%
%TD*%
%TA.AperFunction,ComponentPad*%
%ADD17C,2.000000*%
%TD*%
%TA.AperFunction,ViaPad*%
%ADD18C,0.600000*%
%TD*%
%TA.AperFunction,Conductor*%
%ADD19C,0.200000*%
%TD*%
G04 APERTURE END LIST*
D10*
D11*
X157378328Y-125142856D02*
X157378328Y-125857142D01*
X157378328Y-125857142D02*
X158092614Y-125928570D01*
X158092614Y-125928570D02*
X158021185Y-125857142D01*
X158021185Y-125857142D02*
X157949757Y-125714285D01*
X157949757Y-125714285D02*
X157949757Y-125357142D01*
X157949757Y-125357142D02*
X158021185Y-125214285D01*
X158021185Y-125214285D02*
X158092614Y-125142856D01*
X158092614Y-125142856D02*
X158235471Y-125071427D01*
X158235471Y-125071427D02*
X158592614Y-125071427D01*
X158592614Y-125071427D02*
X158735471Y-125142856D01*
X158735471Y-125142856D02*
X158806900Y-125214285D01*
X158806900Y-125214285D02*
X158878328Y-125357142D01*
X158878328Y-125357142D02*
X158878328Y-125714285D01*
X158878328Y-125714285D02*
X158806900Y-125857142D01*
X158806900Y-125857142D02*
X158735471Y-125928570D01*
D12*
X165500000Y-123000000D02*
X159413580Y-123000000D01*
X159413580Y-128000000D02*
X165500000Y-128000000D01*
X160000000Y-123000000D02*
X160000000Y-128000000D01*
X160000000Y-123000000D02*
X160586421Y-124126504D01*
X160000000Y-123000000D02*
X159413579Y-124126504D01*
X160000000Y-128000000D02*
X159413579Y-126873496D01*
X160000000Y-128000000D02*
X160586421Y-126873496D01*
D10*
D11*
X92378328Y-125142856D02*
X92378328Y-125857142D01*
X92378328Y-125857142D02*
X93092614Y-125928570D01*
X93092614Y-125928570D02*
X93021185Y-125857142D01*
X93021185Y-125857142D02*
X92949757Y-125714285D01*
X92949757Y-125714285D02*
X92949757Y-125357142D01*
X92949757Y-125357142D02*
X93021185Y-125214285D01*
X93021185Y-125214285D02*
X93092614Y-125142856D01*
X93092614Y-125142856D02*
X93235471Y-125071427D01*
X93235471Y-125071427D02*
X93592614Y-125071427D01*
X93592614Y-125071427D02*
X93735471Y-125142856D01*
X93735471Y-125142856D02*
X93806900Y-125214285D01*
X93806900Y-125214285D02*
X93878328Y-125357142D01*
X93878328Y-125357142D02*
X93878328Y-125714285D01*
X93878328Y-125714285D02*
X93806900Y-125857142D01*
X93806900Y-125857142D02*
X93735471Y-125928570D01*
D12*
X84500000Y-123000000D02*
X95586420Y-123000000D01*
X95586420Y-128000000D02*
X84500000Y-128000000D01*
X95000000Y-123000000D02*
X95000000Y-128000000D01*
X95000000Y-123000000D02*
X95586421Y-124126504D01*
X95000000Y-123000000D02*
X94413579Y-124126504D01*
X95000000Y-128000000D02*
X94413579Y-126873496D01*
X95000000Y-128000000D02*
X95586421Y-126873496D01*
D10*
D11*
X156378328Y-48142856D02*
X156378328Y-48857142D01*
X156378328Y-48857142D02*
X157092614Y-48928570D01*
X157092614Y-48928570D02*
X157021185Y-48857142D01*
X157021185Y-48857142D02*
X156949757Y-48714285D01*
X156949757Y-48714285D02*
X156949757Y-48357142D01*
X156949757Y-48357142D02*
X157021185Y-48214285D01*
X157021185Y-48214285D02*
X157092614Y-48142856D01*
X157092614Y-48142856D02*
X157235471Y-48071427D01*
X157235471Y-48071427D02*
X157592614Y-48071427D01*
X157592614Y-48071427D02*
X157735471Y-48142856D01*
X157735471Y-48142856D02*
X157806900Y-48214285D01*
X157806900Y-48214285D02*
X157878328Y-48357142D01*
X157878328Y-48357142D02*
X157878328Y-48714285D01*
X157878328Y-48714285D02*
X157806900Y-48857142D01*
X157806900Y-48857142D02*
X157735471Y-48928570D01*
D12*
X165500000Y-51000000D02*
X158413580Y-51000000D01*
X158413580Y-46000000D02*
X165500000Y-46000000D01*
X159000000Y-51000000D02*
X159000000Y-46000000D01*
X159000000Y-51000000D02*
X158413579Y-49873496D01*
X159000000Y-51000000D02*
X159586421Y-49873496D01*
X159000000Y-46000000D02*
X159586421Y-47126504D01*
X159000000Y-46000000D02*
X158413579Y-47126504D01*
D10*
D11*
X169285715Y-56378328D02*
X169000000Y-56378328D01*
X169000000Y-56378328D02*
X168857143Y-56449757D01*
X168857143Y-56449757D02*
X168785715Y-56521185D01*
X168785715Y-56521185D02*
X168642857Y-56735471D01*
X168642857Y-56735471D02*
X168571429Y-57021185D01*
X168571429Y-57021185D02*
X168571429Y-57592614D01*
X168571429Y-57592614D02*
X168642857Y-57735471D01*
X168642857Y-57735471D02*
X168714286Y-57806900D01*
X168714286Y-57806900D02*
X168857143Y-57878328D01*
X168857143Y-57878328D02*
X169142857Y-57878328D01*
X169142857Y-57878328D02*
X169285715Y-57806900D01*
X169285715Y-57806900D02*
X169357143Y-57735471D01*
X169357143Y-57735471D02*
X169428572Y-57592614D01*
X169428572Y-57592614D02*
X169428572Y-57235471D01*
X169428572Y-57235471D02*
X169357143Y-57092614D01*
X169357143Y-57092614D02*
X169285715Y-57021185D01*
X169285715Y-57021185D02*
X169142857Y-56949757D01*
X169142857Y-56949757D02*
X168857143Y-56949757D01*
X168857143Y-56949757D02*
X168714286Y-57021185D01*
X168714286Y-57021185D02*
X168642857Y-57092614D01*
X168642857Y-57092614D02*
X168571429Y-57235471D01*
D12*
X166000000Y-51500000D02*
X166000000Y-59586420D01*
X172000000Y-59586420D02*
X172000000Y-51500000D01*
X166000000Y-59000000D02*
X172000000Y-59000000D01*
X166000000Y-59000000D02*
X167126504Y-58413579D01*
X166000000Y-59000000D02*
X167126504Y-59586421D01*
X172000000Y-59000000D02*
X170873496Y-59586421D01*
X172000000Y-59000000D02*
X170873496Y-58413579D01*
D10*
D11*
X168857143Y-134378328D02*
X168142857Y-134378328D01*
X168142857Y-134378328D02*
X168071429Y-135092614D01*
X168071429Y-135092614D02*
X168142857Y-135021185D01*
X168142857Y-135021185D02*
X168285715Y-134949757D01*
X168285715Y-134949757D02*
X168642857Y-134949757D01*
X168642857Y-134949757D02*
X168785715Y-135021185D01*
X168785715Y-135021185D02*
X168857143Y-135092614D01*
X168857143Y-135092614D02*
X168928572Y-135235471D01*
X168928572Y-135235471D02*
X168928572Y-135592614D01*
X168928572Y-135592614D02*
X168857143Y-135735471D01*
X168857143Y-135735471D02*
X168785715Y-135806900D01*
X168785715Y-135806900D02*
X168642857Y-135878328D01*
X168642857Y-135878328D02*
X168285715Y-135878328D01*
X168285715Y-135878328D02*
X168142857Y-135806900D01*
X168142857Y-135806900D02*
X168071429Y-135735471D01*
D12*
X166000000Y-123500000D02*
X166000000Y-137586420D01*
X171000000Y-137586420D02*
X171000000Y-123500000D01*
X166000000Y-137000000D02*
X171000000Y-137000000D01*
X166000000Y-137000000D02*
X167126504Y-136413579D01*
X166000000Y-137000000D02*
X167126504Y-137586421D01*
X171000000Y-137000000D02*
X169873496Y-137586421D01*
X171000000Y-137000000D02*
X169873496Y-136413579D01*
D10*
D11*
X81285715Y-131378328D02*
X81000000Y-131378328D01*
X81000000Y-131378328D02*
X80857143Y-131449757D01*
X80857143Y-131449757D02*
X80785715Y-131521185D01*
X80785715Y-131521185D02*
X80642857Y-131735471D01*
X80642857Y-131735471D02*
X80571429Y-132021185D01*
X80571429Y-132021185D02*
X80571429Y-132592614D01*
X80571429Y-132592614D02*
X80642857Y-132735471D01*
X80642857Y-132735471D02*
X80714286Y-132806900D01*
X80714286Y-132806900D02*
X80857143Y-132878328D01*
X80857143Y-132878328D02*
X81142857Y-132878328D01*
X81142857Y-132878328D02*
X81285715Y-132806900D01*
X81285715Y-132806900D02*
X81357143Y-132735471D01*
X81357143Y-132735471D02*
X81428572Y-132592614D01*
X81428572Y-132592614D02*
X81428572Y-132235471D01*
X81428572Y-132235471D02*
X81357143Y-132092614D01*
X81357143Y-132092614D02*
X81285715Y-132021185D01*
X81285715Y-132021185D02*
X81142857Y-131949757D01*
X81142857Y-131949757D02*
X80857143Y-131949757D01*
X80857143Y-131949757D02*
X80714286Y-132021185D01*
X80714286Y-132021185D02*
X80642857Y-132092614D01*
X80642857Y-132092614D02*
X80571429Y-132235471D01*
D12*
X84000000Y-123500000D02*
X84000000Y-134586420D01*
X78000000Y-134586420D02*
X78000000Y-123500000D01*
X84000000Y-134000000D02*
X78000000Y-134000000D01*
X84000000Y-134000000D02*
X82873496Y-134586421D01*
X84000000Y-134000000D02*
X82873496Y-133413579D01*
X78000000Y-134000000D02*
X79126504Y-133413579D01*
X78000000Y-134000000D02*
X79126504Y-134586421D01*
D10*
D11*
X81285715Y-53378328D02*
X81000000Y-53378328D01*
X81000000Y-53378328D02*
X80857143Y-53449757D01*
X80857143Y-53449757D02*
X80785715Y-53521185D01*
X80785715Y-53521185D02*
X80642857Y-53735471D01*
X80642857Y-53735471D02*
X80571429Y-54021185D01*
X80571429Y-54021185D02*
X80571429Y-54592614D01*
X80571429Y-54592614D02*
X80642857Y-54735471D01*
X80642857Y-54735471D02*
X80714286Y-54806900D01*
X80714286Y-54806900D02*
X80857143Y-54878328D01*
X80857143Y-54878328D02*
X81142857Y-54878328D01*
X81142857Y-54878328D02*
X81285715Y-54806900D01*
X81285715Y-54806900D02*
X81357143Y-54735471D01*
X81357143Y-54735471D02*
X81428572Y-54592614D01*
X81428572Y-54592614D02*
X81428572Y-54235471D01*
X81428572Y-54235471D02*
X81357143Y-54092614D01*
X81357143Y-54092614D02*
X81285715Y-54021185D01*
X81285715Y-54021185D02*
X81142857Y-53949757D01*
X81142857Y-53949757D02*
X80857143Y-53949757D01*
X80857143Y-53949757D02*
X80714286Y-54021185D01*
X80714286Y-54021185D02*
X80642857Y-54092614D01*
X80642857Y-54092614D02*
X80571429Y-54235471D01*
D12*
X84000000Y-51500000D02*
X84000000Y-56586420D01*
X78000000Y-56586420D02*
X78000000Y-51500000D01*
X84000000Y-56000000D02*
X78000000Y-56000000D01*
X84000000Y-56000000D02*
X82873496Y-56586421D01*
X84000000Y-56000000D02*
X82873496Y-55413579D01*
X78000000Y-56000000D02*
X79126504Y-55413579D01*
X78000000Y-56000000D02*
X79126504Y-56586421D01*
D10*
D11*
X72378328Y-48142856D02*
X72378328Y-48857142D01*
X72378328Y-48857142D02*
X73092614Y-48928570D01*
X73092614Y-48928570D02*
X73021185Y-48857142D01*
X73021185Y-48857142D02*
X72949757Y-48714285D01*
X72949757Y-48714285D02*
X72949757Y-48357142D01*
X72949757Y-48357142D02*
X73021185Y-48214285D01*
X73021185Y-48214285D02*
X73092614Y-48142856D01*
X73092614Y-48142856D02*
X73235471Y-48071427D01*
X73235471Y-48071427D02*
X73592614Y-48071427D01*
X73592614Y-48071427D02*
X73735471Y-48142856D01*
X73735471Y-48142856D02*
X73806900Y-48214285D01*
X73806900Y-48214285D02*
X73878328Y-48357142D01*
X73878328Y-48357142D02*
X73878328Y-48714285D01*
X73878328Y-48714285D02*
X73806900Y-48857142D01*
X73806900Y-48857142D02*
X73735471Y-48928570D01*
D12*
X83500000Y-51000000D02*
X74413580Y-51000000D01*
X74413580Y-46000000D02*
X83500000Y-46000000D01*
X75000000Y-51000000D02*
X75000000Y-46000000D01*
X75000000Y-51000000D02*
X74413579Y-49873496D01*
X75000000Y-51000000D02*
X75586421Y-49873496D01*
X75000000Y-46000000D02*
X75586421Y-47126504D01*
X75000000Y-46000000D02*
X74413579Y-47126504D01*
D13*
%TO.P,SW4,1,1_1*%
%TO.N,Net-(U1-D3)*%
X102610000Y-102040000D03*
%TO.P,SW4,2,2_2*%
%TO.N,GND*%
X96260000Y-104580000D03*
%TD*%
%TO.P,SW1,1,1_1*%
%TO.N,GND*%
X103000000Y-79000000D03*
%TO.P,SW1,2,2_2*%
%TO.N,Net-(U1-D0)*%
X96650000Y-81540000D03*
%TD*%
%TO.P,SW6,1,1_1*%
%TO.N,Net-(U1-D4)*%
X150460000Y-102000000D03*
%TO.P,SW6,2,2_2*%
%TO.N,GND*%
X144110000Y-104540000D03*
%TD*%
%TO.P,SW5,1,1_1*%
%TO.N,Net-(U1-D5)*%
X126460000Y-102000000D03*
%TO.P,SW5,2,2_2*%
%TO.N,GND*%
X120110000Y-104540000D03*
%TD*%
%TO.P,SW3,1,1_1*%
%TO.N,GND*%
X151000000Y-79000000D03*
%TO.P,SW3,2,2_2*%
%TO.N,Net-(U1-D2)*%
X144650000Y-81540000D03*
%TD*%
%TO.P,SW2,1,1_1*%
%TO.N,GND*%
X127000000Y-79000000D03*
%TO.P,SW2,2,2_2*%
%TO.N,Net-(U1-D1)*%
X120650000Y-81540000D03*
%TD*%
D14*
%TO.P,J1,1,Pin_1_1*%
%TO.N,GND*%
X156350000Y-57000000D03*
D15*
%TO.P,J1,2,Pin_2_2*%
%TO.N,+3.3V*%
X153810000Y-57000000D03*
%TO.P,J1,3,Pin_3_3*%
%TO.N,/SCL*%
X151270000Y-57000000D03*
%TO.P,J1,4,Pin_4_4*%
%TO.N,/SDA*%
X148730000Y-57000000D03*
%TO.P,J1,5,Pin_5_5*%
%TO.N,+3.3V*%
X146190000Y-57000000D03*
%TO.P,J1,6,Pin_6_6*%
%TO.N,/DC*%
X143650000Y-57000000D03*
%TO.P,J1,7,Pin_7_7*%
%TO.N,/CS*%
X141110000Y-57000000D03*
%TO.P,J1,8,Pin_8_8*%
%TO.N,GND*%
X138570000Y-57000000D03*
%TD*%
D16*
%TO.P,BZ1,1,+_1*%
%TO.N,Net-(BZ1-+)*%
X102260000Y-57000000D03*
D17*
%TO.P,BZ1,2,-_2*%
%TO.N,GND*%
X94660000Y-57000000D03*
%TD*%
D18*
%TO.N,Net-(U1-D3)*%
X128528332Y-57667060D03*
%TO.N,GND*%
X139877117Y-57550000D03*
X112545000Y-52000000D03*
%TO.N,Net-(U1-D4)*%
X130860000Y-59000000D03*
%TO.N,Net-(U1-D5)*%
X128525057Y-62000000D03*
%TO.N,Net-(U1-D2)*%
X127925057Y-64872000D03*
%TO.N,/DC*%
X130860000Y-64000000D03*
%TO.N,+3.3V*%
X146081092Y-56450000D03*
%TD*%
%TO.N,Net-(U1-D3)*%
D19*
X118180000Y-68015392D02*
X118180000Y-86470000D01*
X128528332Y-57667060D02*
X118180000Y-68015392D01*
X118180000Y-86470000D02*
X102610000Y-102040000D01*
%TO.N,GND*%
X139877117Y-56606537D02*
X140633654Y-55850000D01*
X144126346Y-55850000D02*
X145040000Y-56763654D01*
X140633654Y-55850000D02*
X144126346Y-55850000D01*
X145040000Y-56763654D02*
X145040000Y-71484366D01*
X151000000Y-77444366D02*
X151000000Y-79000000D01*
X112545000Y-52000000D02*
X99660000Y-52000000D01*
X145040000Y-71484366D02*
X151000000Y-77444366D01*
X99660000Y-52000000D02*
X94660000Y-57000000D01*
X139877117Y-57550000D02*
X139877117Y-56606537D01*
%TO.N,Net-(U1-D4)*%
X146110000Y-97650000D02*
X150460000Y-102000000D01*
X130860000Y-59000000D02*
X146110000Y-74250000D01*
X146110000Y-74250000D02*
X146110000Y-97650000D01*
%TO.N,Net-(U1-D5)*%
X128525057Y-62000000D02*
X122110000Y-68415057D01*
X122110000Y-97650000D02*
X126460000Y-102000000D01*
X122110000Y-68415057D02*
X122110000Y-97650000D01*
%TO.N,Net-(U1-D2)*%
X127925057Y-64872000D02*
X127982000Y-64872000D01*
X127982000Y-64872000D02*
X144650000Y-81540000D01*
%TO.N,/DC*%
X130260000Y-58751471D02*
X130861471Y-58150000D01*
X130860000Y-64000000D02*
X130260000Y-63400000D01*
X130260000Y-63400000D02*
X130260000Y-58751471D01*
X130861471Y-58150000D02*
X142500000Y-58150000D01*
X142500000Y-58150000D02*
X143650000Y-57000000D01*
%TO.N,+3.3V*%
X146081092Y-56450000D02*
X146681092Y-55850000D01*
X146681092Y-55850000D02*
X152660000Y-55850000D01*
X152660000Y-55850000D02*
X153810000Y-57000000D01*
%TD*%
%TA.AperFunction,NonConductor*%
G36*
X82229954Y-51620185D02*
G01*
X82275709Y-51672989D01*
X82277476Y-51677048D01*
X82336770Y-51820200D01*
X82336773Y-51820205D01*
X82336776Y-51820212D01*
X82458064Y-52030289D01*
X82458066Y-52030292D01*
X82458067Y-52030293D01*
X82605733Y-52222736D01*
X82605739Y-52222743D01*
X82777256Y-52394260D01*
X82777262Y-52394265D01*
X82969711Y-52541936D01*
X83179788Y-52663224D01*
X83179793Y-52663226D01*
X83179799Y-52663229D01*
X83322952Y-52722524D01*
X83377356Y-52766364D01*
X83399421Y-52832658D01*
X83399500Y-52837085D01*
X83399500Y-54806060D01*
X83379815Y-54873099D01*
X83327011Y-54918854D01*
X83257853Y-54928798D01*
X83218244Y-54916050D01*
X83080650Y-54844424D01*
X82926285Y-54810202D01*
X82768323Y-54817097D01*
X82768321Y-54817097D01*
X82617522Y-54864644D01*
X82617521Y-54864645D01*
X82484176Y-54949595D01*
X82377348Y-55066176D01*
X82319787Y-55176753D01*
X82271371Y-55227129D01*
X82203406Y-55243332D01*
X82137471Y-55220219D01*
X82094498Y-55165127D01*
X82085797Y-55119497D01*
X82085797Y-52721103D01*
X79913225Y-52721103D01*
X79913225Y-55117619D01*
X79893540Y-55184658D01*
X79840736Y-55230413D01*
X79771578Y-55240357D01*
X79708022Y-55211332D01*
X79679236Y-55174877D01*
X79622649Y-55066175D01*
X79515829Y-54949600D01*
X79515826Y-54949598D01*
X79515824Y-54949596D01*
X79382476Y-54864645D01*
X79382471Y-54864643D01*
X79231682Y-54817100D01*
X79231679Y-54817099D01*
X79073717Y-54810201D01*
X78919349Y-54844424D01*
X78781756Y-54916050D01*
X78713202Y-54929544D01*
X78648235Y-54903833D01*
X78607481Y-54847080D01*
X78600500Y-54806060D01*
X78600500Y-51724500D01*
X78620185Y-51657461D01*
X78672989Y-51611706D01*
X78724500Y-51600500D01*
X82162915Y-51600500D01*
X82229954Y-51620185D01*
G37*
%TD.AperFunction*%
%TA.AperFunction,NonConductor*%
G36*
X171442539Y-46520185D02*
G01*
X171488294Y-46572989D01*
X171499500Y-46624500D01*
X171499500Y-51132664D01*
X171482888Y-51194663D01*
X171440423Y-51268215D01*
X171440423Y-51268216D01*
X171399500Y-51420943D01*
X171399500Y-57806060D01*
X171379815Y-57873099D01*
X171327011Y-57918854D01*
X171257853Y-57928798D01*
X171218244Y-57916050D01*
X171080650Y-57844424D01*
X170926285Y-57810202D01*
X170768323Y-57817097D01*
X170768321Y-57817097D01*
X170617522Y-57864644D01*
X170617521Y-57864645D01*
X170484176Y-57949595D01*
X170484172Y-57949599D01*
X170484171Y-57949600D01*
X170476948Y-57957483D01*
X170377348Y-58066176D01*
X170319787Y-58176753D01*
X170271371Y-58227129D01*
X170203406Y-58243332D01*
X170137471Y-58220219D01*
X170094498Y-58165127D01*
X170085797Y-58119497D01*
X170085797Y-55721103D01*
X167913225Y-55721103D01*
X167913225Y-58117619D01*
X167893540Y-58184658D01*
X167840736Y-58230413D01*
X167771578Y-58240357D01*
X167708022Y-58211332D01*
X167679236Y-58174877D01*
X167622649Y-58066175D01*
X167515829Y-57949600D01*
X167515826Y-57949598D01*
X167515824Y-57949596D01*
X167382476Y-57864645D01*
X167382471Y-57864643D01*
X167231682Y-57817100D01*
X167231679Y-57817099D01*
X167073717Y-57810201D01*
X166919349Y-57844424D01*
X166781756Y-57916050D01*
X166713202Y-57929544D01*
X166648235Y-57903833D01*
X166607481Y-57847080D01*
X166600500Y-57806060D01*
X166600500Y-52837085D01*
X166620185Y-52770046D01*
X166672989Y-52724291D01*
X166677048Y-52722524D01*
X166820200Y-52663229D01*
X166820200Y-52663228D01*
X166820212Y-52663224D01*
X167030289Y-52541936D01*
X167222738Y-52394265D01*
X167394265Y-52222738D01*
X167541936Y-52030289D01*
X167663224Y-51820212D01*
X167756054Y-51596100D01*
X167818838Y-51361789D01*
X167850500Y-51121288D01*
X167850500Y-50878712D01*
X167818838Y-50638211D01*
X167756054Y-50403900D01*
X167754231Y-50399500D01*
X167744195Y-50375269D01*
X167663224Y-50179788D01*
X167541936Y-49969711D01*
X167394265Y-49777262D01*
X167394260Y-49777256D01*
X167222743Y-49605739D01*
X167222736Y-49605733D01*
X167030293Y-49458067D01*
X167030292Y-49458066D01*
X167030289Y-49458064D01*
X166820212Y-49336776D01*
X166820205Y-49336773D01*
X166596104Y-49243947D01*
X166361785Y-49181161D01*
X166121289Y-49149500D01*
X166121288Y-49149500D01*
X165878712Y-49149500D01*
X165878711Y-49149500D01*
X165638214Y-49181161D01*
X165403895Y-49243947D01*
X165179794Y-49336773D01*
X165179785Y-49336777D01*
X164969706Y-49458067D01*
X164777263Y-49605733D01*
X164777256Y-49605739D01*
X164605739Y-49777256D01*
X164605733Y-49777263D01*
X164458067Y-49969706D01*
X164336777Y-50179785D01*
X164336770Y-50179799D01*
X164277476Y-50322952D01*
X164233636Y-50377356D01*
X164167342Y-50399421D01*
X164162915Y-50399500D01*
X160193939Y-50399500D01*
X160126900Y-50379815D01*
X160081145Y-50327011D01*
X160071201Y-50257853D01*
X160083950Y-50218243D01*
X160108006Y-50172030D01*
X160155575Y-50080652D01*
X160189798Y-49926285D01*
X160182901Y-49768321D01*
X160135355Y-49617524D01*
X160050400Y-49484171D01*
X159933825Y-49377351D01*
X159793577Y-49304342D01*
X159793578Y-49304342D01*
X159697661Y-49283078D01*
X159636472Y-49249350D01*
X159603230Y-49187894D01*
X159600500Y-49162017D01*
X159600500Y-47837982D01*
X159620185Y-47770943D01*
X159672989Y-47725188D01*
X159697659Y-47716922D01*
X159793577Y-47695658D01*
X159933825Y-47622649D01*
X160050400Y-47515829D01*
X160135355Y-47382476D01*
X160182901Y-47231679D01*
X160189798Y-47073715D01*
X160155575Y-46919348D01*
X160083950Y-46781757D01*
X160070455Y-46713203D01*
X160096165Y-46648235D01*
X160152918Y-46607482D01*
X160193939Y-46600500D01*
X165579055Y-46600500D01*
X165579057Y-46600500D01*
X165731784Y-46559577D01*
X165805334Y-46517112D01*
X165867334Y-46500500D01*
X171375500Y-46500500D01*
X171442539Y-46520185D01*
G37*
%TD.AperFunction*%
%TA.AperFunction,NonConductor*%
G36*
X164229954Y-123620185D02*
G01*
X164275709Y-123672989D01*
X164277476Y-123677048D01*
X164336770Y-123820200D01*
X164336773Y-123820205D01*
X164336776Y-123820212D01*
X164458064Y-124030289D01*
X164458066Y-124030292D01*
X164458067Y-124030293D01*
X164605733Y-124222736D01*
X164605739Y-124222743D01*
X164777256Y-124394260D01*
X164777262Y-124394265D01*
X164969711Y-124541936D01*
X165179788Y-124663224D01*
X165179793Y-124663226D01*
X165179799Y-124663229D01*
X165322952Y-124722524D01*
X165377356Y-124766364D01*
X165399421Y-124832658D01*
X165399500Y-124837085D01*
X165399500Y-127275500D01*
X165379815Y-127342539D01*
X165327011Y-127388294D01*
X165275500Y-127399500D01*
X161193939Y-127399500D01*
X161126900Y-127379815D01*
X161081145Y-127327011D01*
X161071201Y-127257853D01*
X161083950Y-127218243D01*
X161108006Y-127172030D01*
X161155575Y-127080652D01*
X161189798Y-126926285D01*
X161182901Y-126768321D01*
X161135355Y-126617524D01*
X161050400Y-126484171D01*
X160933825Y-126377351D01*
X160793577Y-126304342D01*
X160793578Y-126304342D01*
X160697661Y-126283078D01*
X160636472Y-126249350D01*
X160603230Y-126187894D01*
X160600500Y-126162017D01*
X160600500Y-124837982D01*
X160620185Y-124770943D01*
X160672989Y-124725188D01*
X160697659Y-124716922D01*
X160793577Y-124695658D01*
X160933825Y-124622649D01*
X161050400Y-124515829D01*
X161135355Y-124382476D01*
X161182901Y-124231679D01*
X161189798Y-124073715D01*
X161155575Y-123919348D01*
X161103968Y-123820212D01*
X161083950Y-123781757D01*
X161070455Y-123713203D01*
X161096165Y-123648235D01*
X161152918Y-123607482D01*
X161193939Y-123600500D01*
X164162915Y-123600500D01*
X164229954Y-123620185D01*
G37*
%TD.AperFunction*%
%TA.AperFunction,NonConductor*%
G36*
X93873100Y-123620185D02*
G01*
X93918855Y-123672989D01*
X93928799Y-123742147D01*
X93916050Y-123781757D01*
X93844428Y-123919341D01*
X93844423Y-123919354D01*
X93810203Y-124073704D01*
X93810202Y-124073716D01*
X93817097Y-124231676D01*
X93817098Y-124231681D01*
X93823793Y-124252915D01*
X93825178Y-124322771D01*
X93788577Y-124382287D01*
X93725609Y-124412566D01*
X93705532Y-124414202D01*
X91720629Y-124414202D01*
X91720629Y-126586269D01*
X93705384Y-126586269D01*
X93772423Y-126605954D01*
X93818178Y-126658758D01*
X93828122Y-126727916D01*
X93823645Y-126747557D01*
X93817097Y-126768321D01*
X93817097Y-126768323D01*
X93810202Y-126926283D01*
X93810203Y-126926295D01*
X93844423Y-127080645D01*
X93844425Y-127080652D01*
X93844427Y-127080657D01*
X93844428Y-127080658D01*
X93916050Y-127218243D01*
X93929545Y-127286797D01*
X93903835Y-127351765D01*
X93847082Y-127392518D01*
X93806061Y-127399500D01*
X84724500Y-127399500D01*
X84657461Y-127379815D01*
X84611706Y-127327011D01*
X84600500Y-127275500D01*
X84600500Y-124837085D01*
X84620185Y-124770046D01*
X84672989Y-124724291D01*
X84677048Y-124722524D01*
X84820200Y-124663229D01*
X84820200Y-124663228D01*
X84820212Y-124663224D01*
X85030289Y-124541936D01*
X85222738Y-124394265D01*
X85394265Y-124222738D01*
X85541936Y-124030289D01*
X85663224Y-123820212D01*
X85722524Y-123677047D01*
X85766364Y-123622644D01*
X85832658Y-123600579D01*
X85837085Y-123600500D01*
X93806061Y-123600500D01*
X93873100Y-123620185D01*
G37*
%TD.AperFunction*%
%TA.AperFunction,NonConductor*%
G36*
X157925157Y-46520185D02*
G01*
X157970912Y-46572989D01*
X157980856Y-46642147D01*
X157968107Y-46681757D01*
X157844424Y-46919347D01*
X157810202Y-47073712D01*
X157810202Y-47073716D01*
X157817097Y-47231676D01*
X157817098Y-47231681D01*
X157823793Y-47252915D01*
X157825178Y-47322771D01*
X157788577Y-47382287D01*
X157725609Y-47412566D01*
X157705532Y-47414202D01*
X155720629Y-47414202D01*
X155720629Y-49586269D01*
X157705384Y-49586269D01*
X157772423Y-49605954D01*
X157818178Y-49658758D01*
X157828122Y-49727916D01*
X157823645Y-49747557D01*
X157817097Y-49768321D01*
X157817097Y-49768323D01*
X157810202Y-49926283D01*
X157810202Y-49926287D01*
X157844424Y-50080652D01*
X158021295Y-50420418D01*
X158034790Y-50488972D01*
X158009080Y-50553940D01*
X157998988Y-50565356D01*
X157933058Y-50631286D01*
X157933055Y-50631290D01*
X157854006Y-50768209D01*
X157854003Y-50768216D01*
X157813080Y-50920943D01*
X157813080Y-51079057D01*
X157853596Y-51230263D01*
X157854003Y-51231783D01*
X157854006Y-51231790D01*
X157933055Y-51368709D01*
X157933059Y-51368714D01*
X157933060Y-51368716D01*
X158044864Y-51480520D01*
X158044866Y-51480521D01*
X158044870Y-51480524D01*
X158112345Y-51519480D01*
X158181796Y-51559577D01*
X158334523Y-51600500D01*
X158920652Y-51600500D01*
X158945792Y-51603253D01*
X158947209Y-51603377D01*
X158947210Y-51603376D01*
X158947211Y-51603377D01*
X158994607Y-51601307D01*
X159005415Y-51601307D01*
X159052789Y-51603376D01*
X159054220Y-51603250D01*
X159079342Y-51600500D01*
X164162915Y-51600500D01*
X164229954Y-51620185D01*
X164275709Y-51672989D01*
X164277476Y-51677048D01*
X164336770Y-51820200D01*
X164336773Y-51820205D01*
X164336776Y-51820212D01*
X164458064Y-52030289D01*
X164458066Y-52030292D01*
X164458067Y-52030293D01*
X164605733Y-52222736D01*
X164605739Y-52222743D01*
X164777256Y-52394260D01*
X164777262Y-52394265D01*
X164969711Y-52541936D01*
X165179788Y-52663224D01*
X165179793Y-52663226D01*
X165179799Y-52663229D01*
X165322952Y-52722524D01*
X165377356Y-52766364D01*
X165399421Y-52832658D01*
X165399500Y-52837085D01*
X165399500Y-58920653D01*
X165396745Y-58945803D01*
X165396623Y-58947206D01*
X165398691Y-58994594D01*
X165398691Y-59005406D01*
X165396623Y-59052787D01*
X165396752Y-59054262D01*
X165399500Y-59079348D01*
X165399500Y-59665477D01*
X165433824Y-59793574D01*
X165440423Y-59818203D01*
X165440426Y-59818210D01*
X165519475Y-59955129D01*
X165519479Y-59955134D01*
X165519480Y-59955136D01*
X165631284Y-60066940D01*
X165631286Y-60066941D01*
X165631290Y-60066944D01*
X165749783Y-60135355D01*
X165768216Y-60145997D01*
X165920943Y-60186920D01*
X165920945Y-60186920D01*
X166079055Y-60186920D01*
X166079057Y-60186920D01*
X166231784Y-60145997D01*
X166368716Y-60066940D01*
X166434646Y-60001009D01*
X166495965Y-59967527D01*
X166565657Y-59972511D01*
X166579581Y-59978704D01*
X166919347Y-60155575D01*
X166939900Y-60160131D01*
X167073715Y-60189798D01*
X167231679Y-60182901D01*
X167382476Y-60135355D01*
X167515829Y-60050400D01*
X167622649Y-59933825D01*
X167695658Y-59793577D01*
X167716922Y-59697661D01*
X167750650Y-59636472D01*
X167812106Y-59603230D01*
X167837983Y-59600500D01*
X170162017Y-59600500D01*
X170229056Y-59620185D01*
X170274811Y-59672989D01*
X170283076Y-59697656D01*
X170304342Y-59793577D01*
X170377350Y-59933826D01*
X170484171Y-60050400D01*
X170484174Y-60050402D01*
X170484176Y-60050404D01*
X170604417Y-60127006D01*
X170617524Y-60135356D01*
X170768320Y-60182902D01*
X170926285Y-60189798D01*
X170926293Y-60189796D01*
X170926295Y-60189796D01*
X170969854Y-60180138D01*
X171080652Y-60155575D01*
X171318245Y-60031891D01*
X171386797Y-60018397D01*
X171451764Y-60044107D01*
X171492518Y-60100860D01*
X171499500Y-60141881D01*
X171499500Y-122880214D01*
X171479815Y-122947253D01*
X171427011Y-122993008D01*
X171357853Y-123002952D01*
X171313501Y-122987602D01*
X171231784Y-122940423D01*
X171159091Y-122920945D01*
X171079057Y-122899500D01*
X170920943Y-122899500D01*
X170768216Y-122940423D01*
X170768209Y-122940426D01*
X170631290Y-123019475D01*
X170631282Y-123019481D01*
X170519481Y-123131282D01*
X170519475Y-123131290D01*
X170440426Y-123268209D01*
X170440423Y-123268216D01*
X170399500Y-123420943D01*
X170399500Y-127375500D01*
X170379815Y-127442539D01*
X170327011Y-127488294D01*
X170275500Y-127499500D01*
X166724500Y-127499500D01*
X166657461Y-127479815D01*
X166611706Y-127427011D01*
X166600500Y-127375500D01*
X166600500Y-124837085D01*
X166620185Y-124770046D01*
X166672989Y-124724291D01*
X166677048Y-124722524D01*
X166820200Y-124663229D01*
X166820200Y-124663228D01*
X166820212Y-124663224D01*
X167030289Y-124541936D01*
X167222738Y-124394265D01*
X167394265Y-124222738D01*
X167541936Y-124030289D01*
X167663224Y-123820212D01*
X167756054Y-123596100D01*
X167818838Y-123361789D01*
X167850500Y-123121288D01*
X167850500Y-122878712D01*
X167818838Y-122638211D01*
X167756054Y-122403900D01*
X167754231Y-122399500D01*
X167744195Y-122375269D01*
X167663224Y-122179788D01*
X167541936Y-121969711D01*
X167394265Y-121777262D01*
X167394260Y-121777256D01*
X167222743Y-121605739D01*
X167222736Y-121605733D01*
X167030293Y-121458067D01*
X167030292Y-121458066D01*
X167030289Y-121458064D01*
X166820212Y-121336776D01*
X166820205Y-121336773D01*
X166596104Y-121243947D01*
X166361785Y-121181161D01*
X166121289Y-121149500D01*
X166121288Y-121149500D01*
X165878712Y-121149500D01*
X165878711Y-121149500D01*
X165638214Y-121181161D01*
X165403895Y-121243947D01*
X165179794Y-121336773D01*
X165179785Y-121336777D01*
X164969706Y-121458067D01*
X164777263Y-121605733D01*
X164777256Y-121605739D01*
X164605739Y-121777256D01*
X164605733Y-121777263D01*
X164458067Y-121969706D01*
X164336777Y-122179785D01*
X164336770Y-122179799D01*
X164277476Y-122322952D01*
X164233636Y-122377356D01*
X164167342Y-122399421D01*
X164162915Y-122399500D01*
X160079343Y-122399500D01*
X160054253Y-122396752D01*
X160052791Y-122396624D01*
X160052789Y-122396624D01*
X160052786Y-122396624D01*
X160052785Y-122396624D01*
X160005415Y-122398691D01*
X159994605Y-122398691D01*
X159947214Y-122396623D01*
X159947212Y-122396623D01*
X159947211Y-122396623D01*
X159947209Y-122396623D01*
X159945755Y-122396750D01*
X159920652Y-122399500D01*
X159334523Y-122399500D01*
X159181796Y-122440423D01*
X159181789Y-122440426D01*
X159044870Y-122519475D01*
X159044862Y-122519481D01*
X158933061Y-122631282D01*
X158933055Y-122631290D01*
X158854006Y-122768209D01*
X158854003Y-122768216D01*
X158813080Y-122920943D01*
X158813080Y-123079057D01*
X158844057Y-123194663D01*
X158854003Y-123231783D01*
X158854006Y-123231790D01*
X158933055Y-123368709D01*
X158933061Y-123368717D01*
X158998987Y-123434643D01*
X159032472Y-123495966D01*
X159027488Y-123565658D01*
X159021296Y-123579579D01*
X158844425Y-123919348D01*
X158844424Y-123919349D01*
X158844424Y-123919351D01*
X158810202Y-124073712D01*
X158810202Y-124073716D01*
X158817097Y-124231676D01*
X158817098Y-124231681D01*
X158823793Y-124252915D01*
X158825178Y-124322771D01*
X158788577Y-124382287D01*
X158725609Y-124412566D01*
X158705532Y-124414202D01*
X156720629Y-124414202D01*
X156720629Y-126586269D01*
X158705384Y-126586269D01*
X158772423Y-126605954D01*
X158818178Y-126658758D01*
X158828122Y-126727916D01*
X158823645Y-126747557D01*
X158817097Y-126768321D01*
X158817097Y-126768323D01*
X158810202Y-126926283D01*
X158810202Y-126926287D01*
X158844424Y-127080652D01*
X158968107Y-127318243D01*
X158981602Y-127386797D01*
X158955892Y-127451764D01*
X158899139Y-127492518D01*
X158858118Y-127499500D01*
X96141882Y-127499500D01*
X96074843Y-127479815D01*
X96029088Y-127427011D01*
X96019144Y-127357853D01*
X96031893Y-127318243D01*
X96155575Y-127080652D01*
X96155577Y-127080645D01*
X96189798Y-126926285D01*
X96182901Y-126768321D01*
X96135355Y-126617524D01*
X96050400Y-126484171D01*
X95933825Y-126377351D01*
X95793577Y-126304342D01*
X95793578Y-126304342D01*
X95697661Y-126283078D01*
X95636472Y-126249350D01*
X95603230Y-126187894D01*
X95600500Y-126162017D01*
X95600500Y-124837982D01*
X95620185Y-124770943D01*
X95672989Y-124725188D01*
X95697659Y-124716922D01*
X95793577Y-124695658D01*
X95933825Y-124622649D01*
X96050400Y-124515829D01*
X96135355Y-124382476D01*
X96182901Y-124231679D01*
X96189798Y-124073715D01*
X96166982Y-123970803D01*
X96155575Y-123919347D01*
X95978704Y-123579581D01*
X95965209Y-123511027D01*
X95990919Y-123446059D01*
X96000996Y-123434659D01*
X96066940Y-123368716D01*
X96145997Y-123231784D01*
X96186920Y-123079057D01*
X96186920Y-122920943D01*
X96145997Y-122768216D01*
X96145993Y-122768209D01*
X96066944Y-122631290D01*
X96066938Y-122631282D01*
X95955137Y-122519481D01*
X95955129Y-122519475D01*
X95818210Y-122440426D01*
X95818206Y-122440424D01*
X95818204Y-122440423D01*
X95665477Y-122399500D01*
X95665476Y-122399500D01*
X95079343Y-122399500D01*
X95054253Y-122396752D01*
X95052791Y-122396624D01*
X95052789Y-122396624D01*
X95052786Y-122396624D01*
X95052785Y-122396624D01*
X95005415Y-122398691D01*
X94994605Y-122398691D01*
X94947214Y-122396623D01*
X94947212Y-122396623D01*
X94947211Y-122396623D01*
X94947209Y-122396623D01*
X94945755Y-122396750D01*
X94920652Y-122399500D01*
X85837085Y-122399500D01*
X85770046Y-122379815D01*
X85724291Y-122327011D01*
X85722524Y-122322952D01*
X85663229Y-122179799D01*
X85663226Y-122179793D01*
X85663224Y-122179788D01*
X85541936Y-121969711D01*
X85394265Y-121777262D01*
X85394260Y-121777256D01*
X85222743Y-121605739D01*
X85222736Y-121605733D01*
X85030293Y-121458067D01*
X85030292Y-121458066D01*
X85030289Y-121458064D01*
X84820212Y-121336776D01*
X84820205Y-121336773D01*
X84596104Y-121243947D01*
X84361785Y-121181161D01*
X84121289Y-121149500D01*
X84121288Y-121149500D01*
X83878712Y-121149500D01*
X83878711Y-121149500D01*
X83638214Y-121181161D01*
X83403895Y-121243947D01*
X83179794Y-121336773D01*
X83179785Y-121336777D01*
X82969706Y-121458067D01*
X82777263Y-121605733D01*
X82777256Y-121605739D01*
X82605739Y-121777256D01*
X82605733Y-121777263D01*
X82458067Y-121969706D01*
X82336777Y-122179785D01*
X82336773Y-122179794D01*
X82243947Y-122403895D01*
X82181161Y-122638214D01*
X82149500Y-122878711D01*
X82149500Y-123121288D01*
X82181161Y-123361785D01*
X82243947Y-123596104D01*
X82304440Y-123742147D01*
X82336776Y-123820212D01*
X82458064Y-124030289D01*
X82458066Y-124030292D01*
X82458067Y-124030293D01*
X82605733Y-124222736D01*
X82605739Y-124222743D01*
X82777256Y-124394260D01*
X82777262Y-124394265D01*
X82969711Y-124541936D01*
X83179788Y-124663224D01*
X83179793Y-124663226D01*
X83179799Y-124663229D01*
X83322952Y-124722524D01*
X83377356Y-124766364D01*
X83399421Y-124832658D01*
X83399500Y-124837085D01*
X83399500Y-127375500D01*
X83379815Y-127442539D01*
X83327011Y-127488294D01*
X83275500Y-127499500D01*
X78724500Y-127499500D01*
X78657461Y-127479815D01*
X78611706Y-127427011D01*
X78600500Y-127375500D01*
X78600500Y-123420945D01*
X78600500Y-123420943D01*
X78559577Y-123268216D01*
X78517112Y-123194663D01*
X78500500Y-123132664D01*
X78500500Y-107033389D01*
X93889500Y-107033389D01*
X93889500Y-107206611D01*
X93892811Y-107227513D01*
X93910262Y-107337701D01*
X93916598Y-107377701D01*
X93970127Y-107542445D01*
X94048768Y-107696788D01*
X94150586Y-107836928D01*
X94273072Y-107959414D01*
X94413212Y-108061232D01*
X94567555Y-108139873D01*
X94732299Y-108193402D01*
X94903389Y-108220500D01*
X94903390Y-108220500D01*
X95076610Y-108220500D01*
X95076611Y-108220500D01*
X95247701Y-108193402D01*
X95412445Y-108139873D01*
X95566788Y-108061232D01*
X95706928Y-107959414D01*
X95829414Y-107836928D01*
X95931232Y-107696788D01*
X96009873Y-107542445D01*
X96063402Y-107377701D01*
X96090500Y-107206611D01*
X96090500Y-107033389D01*
X96080854Y-106972486D01*
X97819500Y-106972486D01*
X97819500Y-107267513D01*
X97850431Y-107502445D01*
X97858007Y-107559993D01*
X97932212Y-107836930D01*
X97934361Y-107844951D01*
X97934364Y-107844961D01*
X98047254Y-108117500D01*
X98047258Y-108117510D01*
X98194761Y-108372993D01*
X98374352Y-108607040D01*
X98374358Y-108607047D01*
X98582952Y-108815641D01*
X98582959Y-108815647D01*
X98817006Y-108995238D01*
X99072489Y-109142741D01*
X99072490Y-109142741D01*
X99072493Y-109142743D01*
X99345048Y-109255639D01*
X99630007Y-109331993D01*
X99922494Y-109370500D01*
X99922501Y-109370500D01*
X100217499Y-109370500D01*
X100217506Y-109370500D01*
X100509993Y-109331993D01*
X100794952Y-109255639D01*
X101067507Y-109142743D01*
X101322994Y-108995238D01*
X101557042Y-108815646D01*
X101765646Y-108607042D01*
X101945238Y-108372994D01*
X102092743Y-108117507D01*
X102205639Y-107844952D01*
X102281993Y-107559993D01*
X102320500Y-107267506D01*
X102320500Y-107033389D01*
X104049500Y-107033389D01*
X104049500Y-107206611D01*
X104052811Y-107227513D01*
X104070262Y-107337701D01*
X104076598Y-107377701D01*
X104130127Y-107542445D01*
X104208768Y-107696788D01*
X104310586Y-107836928D01*
X104433072Y-107959414D01*
X104573212Y-108061232D01*
X104727555Y-108139873D01*
X104892299Y-108193402D01*
X105063389Y-108220500D01*
X105063390Y-108220500D01*
X105236610Y-108220500D01*
X105236611Y-108220500D01*
X105407701Y-108193402D01*
X105572445Y-108139873D01*
X105726788Y-108061232D01*
X105866928Y-107959414D01*
X105989414Y-107836928D01*
X106091232Y-107696788D01*
X106169873Y-107542445D01*
X106223402Y-107377701D01*
X106250500Y-107206611D01*
X106250500Y-107033389D01*
X106244165Y-106993389D01*
X117739500Y-106993389D01*
X117739500Y-107166611D01*
X117766598Y-107337701D01*
X117820127Y-107502445D01*
X117898768Y-107656788D01*
X118000586Y-107796928D01*
X118123072Y-107919414D01*
X118263212Y-108021232D01*
X118417555Y-108099873D01*
X118582299Y-108153402D01*
X118753389Y-108180500D01*
X118753390Y-108180500D01*
X118926610Y-108180500D01*
X118926611Y-108180500D01*
X119097701Y-108153402D01*
X119262445Y-108099873D01*
X119416788Y-108021232D01*
X119556928Y-107919414D01*
X119679414Y-107796928D01*
X119781232Y-107656788D01*
X119859873Y-107502445D01*
X119913402Y-107337701D01*
X119940500Y-107166611D01*
X119940500Y-106993389D01*
X119930854Y-106932486D01*
X121669500Y-106932486D01*
X121669500Y-107227513D01*
X121701571Y-107471113D01*
X121708007Y-107519993D01*
X121782212Y-107796930D01*
X121784361Y-107804951D01*
X121784364Y-107804961D01*
X121897254Y-108077500D01*
X121897258Y-108077510D01*
X122044761Y-108332993D01*
X122224352Y-108567040D01*
X122224358Y-108567047D01*
X122432952Y-108775641D01*
X122432959Y-108775647D01*
X122667006Y-108955238D01*
X122922489Y-109102741D01*
X122922490Y-109102741D01*
X122922493Y-109102743D01*
X123195048Y-109215639D01*
X123480007Y-109291993D01*
X123772494Y-109330500D01*
X123772501Y-109330500D01*
X124067499Y-109330500D01*
X124067506Y-109330500D01*
X124359993Y-109291993D01*
X124644952Y-109215639D01*
X124917507Y-109102743D01*
X125172994Y-108955238D01*
X125407042Y-108775646D01*
X125615646Y-108567042D01*
X125795238Y-108332994D01*
X125942743Y-108077507D01*
X126055639Y-107804952D01*
X126131993Y-107519993D01*
X126170500Y-107227506D01*
X126170500Y-106993389D01*
X127899500Y-106993389D01*
X127899500Y-107166611D01*
X127926598Y-107337701D01*
X127980127Y-107502445D01*
X128058768Y-107656788D01*
X128160586Y-107796928D01*
X128283072Y-107919414D01*
X128423212Y-108021232D01*
X128577555Y-108099873D01*
X128742299Y-108153402D01*
X128913389Y-108180500D01*
X128913390Y-108180500D01*
X129086610Y-108180500D01*
X129086611Y-108180500D01*
X129257701Y-108153402D01*
X129422445Y-108099873D01*
X129576788Y-108021232D01*
X129716928Y-107919414D01*
X129839414Y-107796928D01*
X129941232Y-107656788D01*
X130019873Y-107502445D01*
X130073402Y-107337701D01*
X130100500Y-107166611D01*
X130100500Y-106993389D01*
X141739500Y-106993389D01*
X141739500Y-107166611D01*
X141766598Y-107337701D01*
X141820127Y-107502445D01*
X141898768Y-107656788D01*
X142000586Y-107796928D01*
X142123072Y-107919414D01*
X142263212Y-108021232D01*
X142417555Y-108099873D01*
X142582299Y-108153402D01*
X142753389Y-108180500D01*
X142753390Y-108180500D01*
X142926610Y-108180500D01*
X142926611Y-108180500D01*
X143097701Y-108153402D01*
X143262445Y-108099873D01*
X143416788Y-108021232D01*
X143556928Y-107919414D01*
X143679414Y-107796928D01*
X143781232Y-107656788D01*
X143859873Y-107502445D01*
X143913402Y-107337701D01*
X143940500Y-107166611D01*
X143940500Y-106993389D01*
X143930854Y-106932486D01*
X145669500Y-106932486D01*
X145669500Y-107227513D01*
X145701571Y-107471113D01*
X145708007Y-107519993D01*
X145782212Y-107796930D01*
X145784361Y-107804951D01*
X145784364Y-107804961D01*
X145897254Y-108077500D01*
X145897258Y-108077510D01*
X146044761Y-108332993D01*
X146224352Y-108567040D01*
X146224358Y-108567047D01*
X146432952Y-108775641D01*
X146432959Y-108775647D01*
X146667006Y-108955238D01*
X146922489Y-109102741D01*
X146922490Y-109102741D01*
X146922493Y-109102743D01*
X147195048Y-109215639D01*
X147480007Y-109291993D01*
X147772494Y-109330500D01*
X147772501Y-109330500D01*
X148067499Y-109330500D01*
X148067506Y-109330500D01*
X148359993Y-109291993D01*
X148644952Y-109215639D01*
X148917507Y-109102743D01*
X149172994Y-108955238D01*
X149407042Y-108775646D01*
X149615646Y-108567042D01*
X149795238Y-108332994D01*
X149942743Y-108077507D01*
X150055639Y-107804952D01*
X150131993Y-107519993D01*
X150170500Y-107227506D01*
X150170500Y-106993389D01*
X151899500Y-106993389D01*
X151899500Y-107166611D01*
X151926598Y-107337701D01*
X151980127Y-107502445D01*
X152058768Y-107656788D01*
X152160586Y-107796928D01*
X152283072Y-107919414D01*
X152423212Y-108021232D01*
X152577555Y-108099873D01*
X152742299Y-108153402D01*
X152913389Y-108180500D01*
X152913390Y-108180500D01*
X153086610Y-108180500D01*
X153086611Y-108180500D01*
X153257701Y-108153402D01*
X153422445Y-108099873D01*
X153576788Y-108021232D01*
X153716928Y-107919414D01*
X153839414Y-107796928D01*
X153941232Y-107656788D01*
X154019873Y-107502445D01*
X154073402Y-107337701D01*
X154100500Y-107166611D01*
X154100500Y-106993389D01*
X154073402Y-106822299D01*
X154019873Y-106657555D01*
X153941232Y-106503212D01*
X153839414Y-106363072D01*
X153716928Y-106240586D01*
X153576788Y-106138768D01*
X153422445Y-106060127D01*
X153257701Y-106006598D01*
X153257699Y-106006597D01*
X153257698Y-106006597D01*
X153126271Y-105985781D01*
X153086611Y-105979500D01*
X152913389Y-105979500D01*
X152873728Y-105985781D01*
X152742302Y-106006597D01*
X152577552Y-106060128D01*
X152423211Y-106138768D01*
X152368157Y-106178768D01*
X152283072Y-106240586D01*
X152283070Y-106240588D01*
X152283069Y-106240588D01*
X152160588Y-106363069D01*
X152160588Y-106363070D01*
X152160586Y-106363072D01*
X152131526Y-106403070D01*
X152058768Y-106503211D01*
X151980128Y-106657552D01*
X151926597Y-106822302D01*
X151902811Y-106972486D01*
X151899500Y-106993389D01*
X150170500Y-106993389D01*
X150170500Y-106932494D01*
X150131993Y-106640007D01*
X150055639Y-106355048D01*
X149942743Y-106082493D01*
X149910403Y-106026479D01*
X149795238Y-105827006D01*
X149615647Y-105592959D01*
X149615641Y-105592952D01*
X149407047Y-105384358D01*
X149407040Y-105384352D01*
X149172993Y-105204761D01*
X148917510Y-105057258D01*
X148917500Y-105057254D01*
X148644961Y-104944364D01*
X148644954Y-104944362D01*
X148644952Y-104944361D01*
X148359993Y-104868007D01*
X148311113Y-104861571D01*
X148067513Y-104829500D01*
X148067506Y-104829500D01*
X147772494Y-104829500D01*
X147772486Y-104829500D01*
X147494085Y-104866153D01*
X147480007Y-104868007D01*
X147305428Y-104914785D01*
X147195048Y-104944361D01*
X147195038Y-104944364D01*
X146922499Y-105057254D01*
X146922489Y-105057258D01*
X146667006Y-105204761D01*
X146432959Y-105384352D01*
X146432952Y-105384358D01*
X146224358Y-105592952D01*
X146224352Y-105592959D01*
X146044761Y-105827006D01*
X145897258Y-106082489D01*
X145897254Y-106082499D01*
X145784364Y-106355038D01*
X145784361Y-106355048D01*
X145708008Y-106640004D01*
X145708006Y-106640015D01*
X145669500Y-106932486D01*
X143930854Y-106932486D01*
X143913402Y-106822299D01*
X143859873Y-106657555D01*
X143781232Y-106503212D01*
X143679414Y-106363072D01*
X143627482Y-106311140D01*
X143593997Y-106249817D01*
X143598981Y-106180125D01*
X143640853Y-106124192D01*
X143706317Y-106099775D01*
X143734561Y-106100986D01*
X143735212Y-106101089D01*
X143735215Y-106101090D01*
X143984038Y-106140500D01*
X143984039Y-106140500D01*
X144235961Y-106140500D01*
X144235962Y-106140500D01*
X144484785Y-106101090D01*
X144724379Y-106023241D01*
X144948845Y-105908870D01*
X145152656Y-105760793D01*
X145330793Y-105582656D01*
X145478870Y-105378845D01*
X145593241Y-105154379D01*
X145671090Y-104914785D01*
X145710500Y-104665962D01*
X145710500Y-104414038D01*
X145671090Y-104165215D01*
X145593241Y-103925621D01*
X145593239Y-103925618D01*
X145593239Y-103925616D01*
X145551747Y-103844184D01*
X145478870Y-103701155D01*
X145377107Y-103561090D01*
X145330798Y-103497350D01*
X145330794Y-103497345D01*
X145152654Y-103319205D01*
X145152649Y-103319201D01*
X144948848Y-103171132D01*
X144948847Y-103171131D01*
X144948845Y-103171130D01*
X144878747Y-103135413D01*
X144724383Y-103056760D01*
X144484785Y-102978910D01*
X144235962Y-102939500D01*
X143984038Y-102939500D01*
X143859626Y-102959205D01*
X143735214Y-102978910D01*
X143495616Y-103056760D01*
X143271151Y-103171132D01*
X143067350Y-103319201D01*
X143067345Y-103319205D01*
X142889205Y-103497345D01*
X142889201Y-103497350D01*
X142741132Y-103701151D01*
X142626760Y-103925616D01*
X142548910Y-104165214D01*
X142509500Y-104414038D01*
X142509500Y-104665962D01*
X142535402Y-104829500D01*
X142548910Y-104914785D01*
X142626760Y-105154383D01*
X142741132Y-105378848D01*
X142889201Y-105582649D01*
X142889205Y-105582654D01*
X142889207Y-105582656D01*
X143067344Y-105760793D01*
X143067345Y-105760794D01*
X143067344Y-105760794D01*
X143073661Y-105765383D01*
X143116327Y-105820714D01*
X143122305Y-105890327D01*
X143089699Y-105952122D01*
X143028860Y-105986479D01*
X142981378Y-105988174D01*
X142926611Y-105979500D01*
X142753389Y-105979500D01*
X142713728Y-105985781D01*
X142582302Y-106006597D01*
X142417552Y-106060128D01*
X142263211Y-106138768D01*
X142208157Y-106178768D01*
X142123072Y-106240586D01*
X142123070Y-106240588D01*
X142123069Y-106240588D01*
X142000588Y-106363069D01*
X142000588Y-106363070D01*
X142000586Y-106363072D01*
X141971526Y-106403070D01*
X141898768Y-106503211D01*
X141820128Y-106657552D01*
X141766597Y-106822302D01*
X141742811Y-106972486D01*
X141739500Y-106993389D01*
X130100500Y-106993389D01*
X130073402Y-106822299D01*
X130019873Y-106657555D01*
X129941232Y-106503212D01*
X129839414Y-106363072D01*
X129716928Y-106240586D01*
X129576788Y-106138768D01*
X129422445Y-106060127D01*
X129257701Y-106006598D01*
X129257699Y-106006597D01*
X129257698Y-106006597D01*
X129126271Y-105985781D01*
X129086611Y-105979500D01*
X128913389Y-105979500D01*
X128873728Y-105985781D01*
X128742302Y-106006597D01*
X128577552Y-106060128D01*
X128423211Y-106138768D01*
X128368157Y-106178768D01*
X128283072Y-106240586D01*
X128283070Y-106240588D01*
X128283069Y-106240588D01*
X128160588Y-106363069D01*
X128160588Y-106363070D01*
X128160586Y-106363072D01*
X128131526Y-106403070D01*
X128058768Y-106503211D01*
X127980128Y-106657552D01*
X127926597Y-106822302D01*
X127902811Y-106972486D01*
X127899500Y-106993389D01*
X126170500Y-106993389D01*
X126170500Y-106932494D01*
X126131993Y-106640007D01*
X126055639Y-106355048D01*
X125942743Y-106082493D01*
X125910403Y-106026479D01*
X125795238Y-105827006D01*
X125615647Y-105592959D01*
X125615641Y-105592952D01*
X125407047Y-105384358D01*
X125407040Y-105384352D01*
X125172993Y-105204761D01*
X124917510Y-105057258D01*
X124917500Y-105057254D01*
X124644961Y-104944364D01*
X124644954Y-104944362D01*
X124644952Y-104944361D01*
X124359993Y-104868007D01*
X124311113Y-104861571D01*
X124067513Y-104829500D01*
X124067506Y-104829500D01*
X123772494Y-104829500D01*
X123772486Y-104829500D01*
X123494085Y-104866153D01*
X123480007Y-104868007D01*
X123305428Y-104914785D01*
X123195048Y-104944361D01*
X123195038Y-104944364D01*
X122922499Y-105057254D01*
X122922489Y-105057258D01*
X122667006Y-105204761D01*
X122432959Y-105384352D01*
X122432952Y-105384358D01*
X122224358Y-105592952D01*
X122224352Y-105592959D01*
X122044761Y-105827006D01*
X121897258Y-106082489D01*
X121897254Y-106082499D01*
X121784364Y-106355038D01*
X121784361Y-106355048D01*
X121708008Y-106640004D01*
X121708006Y-106640015D01*
X121669500Y-106932486D01*
X119930854Y-106932486D01*
X119913402Y-106822299D01*
X119859873Y-106657555D01*
X119781232Y-106503212D01*
X119679414Y-106363072D01*
X119627482Y-106311140D01*
X119593997Y-106249817D01*
X119598981Y-106180125D01*
X119640853Y-106124192D01*
X119706317Y-106099775D01*
X119734561Y-106100986D01*
X119735212Y-106101089D01*
X119735215Y-106101090D01*
X119984038Y-106140500D01*
X119984039Y-106140500D01*
X120235961Y-106140500D01*
X120235962Y-106140500D01*
X120484785Y-106101090D01*
X120724379Y-106023241D01*
X120948845Y-105908870D01*
X121152656Y-105760793D01*
X121330793Y-105582656D01*
X121478870Y-105378845D01*
X121593241Y-105154379D01*
X121671090Y-104914785D01*
X121710500Y-104665962D01*
X121710500Y-104414038D01*
X121671090Y-104165215D01*
X121593241Y-103925621D01*
X121593239Y-103925618D01*
X121593239Y-103925616D01*
X121551747Y-103844184D01*
X121478870Y-103701155D01*
X121377107Y-103561090D01*
X121330798Y-103497350D01*
X121330794Y-103497345D01*
X121152654Y-103319205D01*
X121152649Y-103319201D01*
X120948848Y-103171132D01*
X120948847Y-103171131D01*
X120948845Y-103171130D01*
X120878747Y-103135413D01*
X120724383Y-103056760D01*
X120484785Y-102978910D01*
X120235962Y-102939500D01*
X119984038Y-102939500D01*
X119859626Y-102959205D01*
X119735214Y-102978910D01*
X119495616Y-103056760D01*
X119271151Y-103171132D01*
X119067350Y-103319201D01*
X119067345Y-103319205D01*
X118889205Y-103497345D01*
X118889201Y-103497350D01*
X118741132Y-103701151D01*
X118626760Y-103925616D01*
X118548910Y-104165214D01*
X118509500Y-104414038D01*
X118509500Y-104665962D01*
X118535402Y-104829500D01*
X118548910Y-104914785D01*
X118626760Y-105154383D01*
X118741132Y-105378848D01*
X118889201Y-105582649D01*
X118889205Y-105582654D01*
X118889207Y-105582656D01*
X119067344Y-105760793D01*
X119067345Y-105760794D01*
X119067344Y-105760794D01*
X119073661Y-105765383D01*
X119116327Y-105820714D01*
X119122305Y-105890327D01*
X119089699Y-105952122D01*
X119028860Y-105986479D01*
X118981378Y-105988174D01*
X118926611Y-105979500D01*
X118753389Y-105979500D01*
X118713728Y-105985781D01*
X118582302Y-106006597D01*
X118417552Y-106060128D01*
X118263211Y-106138768D01*
X118208157Y-106178768D01*
X118123072Y-106240586D01*
X118123070Y-106240588D01*
X118123069Y-106240588D01*
X118000588Y-106363069D01*
X118000588Y-106363070D01*
X118000586Y-106363072D01*
X117971526Y-106403070D01*
X117898768Y-106503211D01*
X117820128Y-106657552D01*
X117766597Y-106822302D01*
X117742811Y-106972486D01*
X117739500Y-106993389D01*
X106244165Y-106993389D01*
X106223402Y-106862299D01*
X106169873Y-106697555D01*
X106091232Y-106543212D01*
X105989414Y-106403072D01*
X105866928Y-106280586D01*
X105726788Y-106178768D01*
X105572445Y-106100127D01*
X105407701Y-106046598D01*
X105407699Y-106046597D01*
X105407698Y-106046597D01*
X105276271Y-106025781D01*
X105236611Y-106019500D01*
X105063389Y-106019500D01*
X105023728Y-106025781D01*
X104892302Y-106046597D01*
X104727552Y-106100128D01*
X104573211Y-106178768D01*
X104516289Y-106220125D01*
X104433072Y-106280586D01*
X104433070Y-106280588D01*
X104433069Y-106280588D01*
X104310588Y-106403069D01*
X104310588Y-106403070D01*
X104310586Y-106403072D01*
X104266859Y-106463256D01*
X104208768Y-106543211D01*
X104130128Y-106697552D01*
X104076597Y-106862302D01*
X104049500Y-107033389D01*
X102320500Y-107033389D01*
X102320500Y-106972494D01*
X102281993Y-106680007D01*
X102205639Y-106395048D01*
X102189070Y-106355048D01*
X102145482Y-106249817D01*
X102092743Y-106122493D01*
X102080385Y-106101089D01*
X101945238Y-105867006D01*
X101765647Y-105632959D01*
X101765641Y-105632952D01*
X101557047Y-105424358D01*
X101557040Y-105424352D01*
X101322993Y-105244761D01*
X101067510Y-105097258D01*
X101067500Y-105097254D01*
X100794961Y-104984364D01*
X100794954Y-104984362D01*
X100794952Y-104984361D01*
X100509993Y-104908007D01*
X100461113Y-104901571D01*
X100217513Y-104869500D01*
X100217506Y-104869500D01*
X99922494Y-104869500D01*
X99922486Y-104869500D01*
X99644085Y-104906153D01*
X99630007Y-104908007D01*
X99494331Y-104944361D01*
X99345048Y-104984361D01*
X99345038Y-104984364D01*
X99072499Y-105097254D01*
X99072489Y-105097258D01*
X98817006Y-105244761D01*
X98582959Y-105424352D01*
X98582952Y-105424358D01*
X98374358Y-105632952D01*
X98374352Y-105632959D01*
X98194761Y-105867006D01*
X98047258Y-106122489D01*
X98047254Y-106122499D01*
X97934364Y-106395038D01*
X97934361Y-106395048D01*
X97858008Y-106680004D01*
X97858006Y-106680015D01*
X97819500Y-106972486D01*
X96080854Y-106972486D01*
X96063402Y-106862299D01*
X96009873Y-106697555D01*
X95931232Y-106543212D01*
X95829414Y-106403072D01*
X95777482Y-106351140D01*
X95743997Y-106289817D01*
X95748981Y-106220125D01*
X95790853Y-106164192D01*
X95856317Y-106139775D01*
X95884561Y-106140986D01*
X95885212Y-106141089D01*
X95885215Y-106141090D01*
X96134038Y-106180500D01*
X96134039Y-106180500D01*
X96385961Y-106180500D01*
X96385962Y-106180500D01*
X96634785Y-106141090D01*
X96874379Y-106063241D01*
X97098845Y-105948870D01*
X97302656Y-105800793D01*
X97480793Y-105622656D01*
X97628870Y-105418845D01*
X97743241Y-105194379D01*
X97821090Y-104954785D01*
X97860500Y-104705962D01*
X97860500Y-104454038D01*
X97821090Y-104205215D01*
X97743241Y-103965621D01*
X97743239Y-103965618D01*
X97743239Y-103965616D01*
X97701747Y-103884184D01*
X97628870Y-103741155D01*
X97599808Y-103701155D01*
X97480798Y-103537350D01*
X97480794Y-103537345D01*
X97302654Y-103359205D01*
X97302649Y-103359201D01*
X97098848Y-103211132D01*
X97098847Y-103211131D01*
X97098845Y-103211130D01*
X97028747Y-103175413D01*
X96874383Y-103096760D01*
X96634785Y-103018910D01*
X96385962Y-102979500D01*
X96134038Y-102979500D01*
X96009626Y-102999205D01*
X95885214Y-103018910D01*
X95645616Y-103096760D01*
X95421151Y-103211132D01*
X95217350Y-103359201D01*
X95217345Y-103359205D01*
X95039205Y-103537345D01*
X95039201Y-103537350D01*
X94891132Y-103741151D01*
X94776760Y-103965616D01*
X94698910Y-104205214D01*
X94698910Y-104205215D01*
X94659500Y-104454038D01*
X94659500Y-104705962D01*
X94685166Y-104868007D01*
X94698910Y-104954785D01*
X94776760Y-105194383D01*
X94891132Y-105418848D01*
X95039201Y-105622649D01*
X95039205Y-105622654D01*
X95039207Y-105622656D01*
X95217344Y-105800793D01*
X95217345Y-105800794D01*
X95217344Y-105800794D01*
X95223661Y-105805383D01*
X95266327Y-105860714D01*
X95272305Y-105930327D01*
X95239699Y-105992122D01*
X95178860Y-106026479D01*
X95131378Y-106028174D01*
X95076611Y-106019500D01*
X94903389Y-106019500D01*
X94863728Y-106025781D01*
X94732302Y-106046597D01*
X94567552Y-106100128D01*
X94413211Y-106178768D01*
X94356289Y-106220125D01*
X94273072Y-106280586D01*
X94273070Y-106280588D01*
X94273069Y-106280588D01*
X94150588Y-106403069D01*
X94150588Y-106403070D01*
X94150586Y-106403072D01*
X94106859Y-106463256D01*
X94048768Y-106543211D01*
X93970128Y-106697552D01*
X93916597Y-106862302D01*
X93889500Y-107033389D01*
X78500500Y-107033389D01*
X78500500Y-101914038D01*
X101009500Y-101914038D01*
X101009500Y-102165961D01*
X101048910Y-102414785D01*
X101126760Y-102654383D01*
X101241132Y-102878848D01*
X101389201Y-103082649D01*
X101389205Y-103082654D01*
X101567345Y-103260794D01*
X101567350Y-103260798D01*
X101745117Y-103389952D01*
X101771155Y-103408870D01*
X101914184Y-103481747D01*
X101995616Y-103523239D01*
X101995618Y-103523239D01*
X101995621Y-103523241D01*
X102235215Y-103601090D01*
X102484038Y-103640500D01*
X102484039Y-103640500D01*
X102735961Y-103640500D01*
X102735962Y-103640500D01*
X102984785Y-103601090D01*
X103224379Y-103523241D01*
X103448845Y-103408870D01*
X103652656Y-103260793D01*
X103830793Y-103082656D01*
X103978870Y-102878845D01*
X104093241Y-102654379D01*
X104171090Y-102414785D01*
X104210500Y-102165962D01*
X104210500Y-101914038D01*
X104171090Y-101665215D01*
X104171089Y-101665211D01*
X104171089Y-101665210D01*
X104111909Y-101483073D01*
X104109914Y-101413232D01*
X104142157Y-101357076D01*
X118548713Y-86950521D01*
X118548716Y-86950520D01*
X118660520Y-86838716D01*
X118710639Y-86751904D01*
X118739577Y-86701785D01*
X118780500Y-86549057D01*
X118780500Y-86390943D01*
X118780500Y-85212009D01*
X118800185Y-85144970D01*
X118852989Y-85099215D01*
X118922147Y-85089271D01*
X118952657Y-85098944D01*
X118953046Y-85098006D01*
X118957547Y-85099870D01*
X118957552Y-85099871D01*
X118957555Y-85099873D01*
X119122299Y-85153402D01*
X119293389Y-85180500D01*
X119293390Y-85180500D01*
X119466610Y-85180500D01*
X119466611Y-85180500D01*
X119637701Y-85153402D01*
X119802445Y-85099873D01*
X119956788Y-85021232D01*
X120096928Y-84919414D01*
X120219414Y-84796928D01*
X120321232Y-84656788D01*
X120399873Y-84502445D01*
X120453402Y-84337701D01*
X120480500Y-84166611D01*
X120480500Y-83993389D01*
X120453402Y-83822299D01*
X120399873Y-83657555D01*
X120321232Y-83503212D01*
X120219414Y-83363072D01*
X120167482Y-83311140D01*
X120133997Y-83249817D01*
X120138981Y-83180125D01*
X120180853Y-83124192D01*
X120246317Y-83099775D01*
X120274561Y-83100986D01*
X120275212Y-83101089D01*
X120275215Y-83101090D01*
X120524038Y-83140500D01*
X120524039Y-83140500D01*
X120775961Y-83140500D01*
X120775962Y-83140500D01*
X121024785Y-83101090D01*
X121264379Y-83023241D01*
X121329204Y-82990210D01*
X121397873Y-82977314D01*
X121462614Y-83003590D01*
X121502872Y-83060696D01*
X121509500Y-83100695D01*
X121509500Y-97563330D01*
X121509499Y-97563348D01*
X121509499Y-97729054D01*
X121509498Y-97729054D01*
X121550423Y-97881785D01*
X121579358Y-97931900D01*
X121579359Y-97931904D01*
X121579360Y-97931904D01*
X121629479Y-98018714D01*
X121629481Y-98018717D01*
X121748349Y-98137585D01*
X121748355Y-98137590D01*
X124927841Y-101317076D01*
X124961326Y-101378399D01*
X124958091Y-101443076D01*
X124898910Y-101625214D01*
X124859500Y-101874038D01*
X124859500Y-102125962D01*
X124898910Y-102374785D01*
X124976760Y-102614383D01*
X125091132Y-102838848D01*
X125239201Y-103042649D01*
X125239205Y-103042654D01*
X125417345Y-103220794D01*
X125417350Y-103220798D01*
X125595117Y-103349952D01*
X125621155Y-103368870D01*
X125699654Y-103408867D01*
X125845616Y-103483239D01*
X125845618Y-103483239D01*
X125845621Y-103483241D01*
X126085215Y-103561090D01*
X126334038Y-103600500D01*
X126334039Y-103600500D01*
X126585961Y-103600500D01*
X126585962Y-103600500D01*
X126834785Y-103561090D01*
X127074379Y-103483241D01*
X127298845Y-103368870D01*
X127502656Y-103220793D01*
X127680793Y-103042656D01*
X127828870Y-102838845D01*
X127943241Y-102614379D01*
X128021090Y-102374785D01*
X128060500Y-102125962D01*
X128060500Y-101874038D01*
X128021090Y-101625215D01*
X127943241Y-101385621D01*
X127943239Y-101385618D01*
X127943239Y-101385616D01*
X127901747Y-101304184D01*
X127828870Y-101161155D01*
X127709859Y-100997350D01*
X127680798Y-100957350D01*
X127680794Y-100957345D01*
X127502654Y-100779205D01*
X127502649Y-100779201D01*
X127298848Y-100631132D01*
X127298847Y-100631131D01*
X127298845Y-100631130D01*
X127228747Y-100595413D01*
X127074383Y-100516760D01*
X126834785Y-100438910D01*
X126585962Y-100399500D01*
X126334038Y-100399500D01*
X126209626Y-100419205D01*
X126085214Y-100438910D01*
X125996175Y-100467841D01*
X125903074Y-100498091D01*
X125833234Y-100500086D01*
X125777076Y-100467841D01*
X122746819Y-97437584D01*
X122713334Y-97376261D01*
X122710500Y-97349903D01*
X122710500Y-85812551D01*
X122730185Y-85745512D01*
X122782989Y-85699757D01*
X122852147Y-85689813D01*
X122915703Y-85718838D01*
X122922181Y-85724870D01*
X122972952Y-85775641D01*
X122972959Y-85775647D01*
X123207006Y-85955238D01*
X123462489Y-86102741D01*
X123462490Y-86102741D01*
X123462493Y-86102743D01*
X123735048Y-86215639D01*
X124020007Y-86291993D01*
X124312494Y-86330500D01*
X124312501Y-86330500D01*
X124607499Y-86330500D01*
X124607506Y-86330500D01*
X124899993Y-86291993D01*
X125184952Y-86215639D01*
X125457507Y-86102743D01*
X125712994Y-85955238D01*
X125947042Y-85775646D01*
X126155646Y-85567042D01*
X126335238Y-85332994D01*
X126482743Y-85077507D01*
X126595639Y-84804952D01*
X126671993Y-84519993D01*
X126710500Y-84227506D01*
X126710500Y-83993389D01*
X128439500Y-83993389D01*
X128439500Y-84166611D01*
X128466598Y-84337701D01*
X128520127Y-84502445D01*
X128598768Y-84656788D01*
X128700586Y-84796928D01*
X128823072Y-84919414D01*
X128963212Y-85021232D01*
X129117555Y-85099873D01*
X129282299Y-85153402D01*
X129453389Y-85180500D01*
X129453390Y-85180500D01*
X129626610Y-85180500D01*
X129626611Y-85180500D01*
X129797701Y-85153402D01*
X129962445Y-85099873D01*
X130116788Y-85021232D01*
X130256928Y-84919414D01*
X130379414Y-84796928D01*
X130481232Y-84656788D01*
X130559873Y-84502445D01*
X130613402Y-84337701D01*
X130640500Y-84166611D01*
X130640500Y-83993389D01*
X130613402Y-83822299D01*
X130559873Y-83657555D01*
X130481232Y-83503212D01*
X130379414Y-83363072D01*
X130256928Y-83240586D01*
X130116788Y-83138768D01*
X129962445Y-83060127D01*
X129797701Y-83006598D01*
X129797699Y-83006597D01*
X129797698Y-83006597D01*
X129666271Y-82985781D01*
X129626611Y-82979500D01*
X129453389Y-82979500D01*
X129413728Y-82985781D01*
X129282302Y-83006597D01*
X129117552Y-83060128D01*
X128963211Y-83138768D01*
X128940500Y-83155269D01*
X128823072Y-83240586D01*
X128823070Y-83240588D01*
X128823069Y-83240588D01*
X128700588Y-83363069D01*
X128700588Y-83363070D01*
X128700586Y-83363072D01*
X128656859Y-83423256D01*
X128598768Y-83503211D01*
X128520128Y-83657552D01*
X128466597Y-83822302D01*
X128439500Y-83993389D01*
X126710500Y-83993389D01*
X126710500Y-83932494D01*
X126671993Y-83640007D01*
X126595639Y-83355048D01*
X126482743Y-83082493D01*
X126437188Y-83003590D01*
X126335238Y-82827006D01*
X126155647Y-82592959D01*
X126155641Y-82592952D01*
X125947047Y-82384358D01*
X125947040Y-82384352D01*
X125712993Y-82204761D01*
X125457510Y-82057258D01*
X125457500Y-82057254D01*
X125184961Y-81944364D01*
X125184954Y-81944362D01*
X125184952Y-81944361D01*
X124899993Y-81868007D01*
X124851113Y-81861571D01*
X124607513Y-81829500D01*
X124607506Y-81829500D01*
X124312494Y-81829500D01*
X124312486Y-81829500D01*
X124034085Y-81866153D01*
X124020007Y-81868007D01*
X123845428Y-81914785D01*
X123735048Y-81944361D01*
X123735038Y-81944364D01*
X123462499Y-82057254D01*
X123462489Y-82057258D01*
X123207006Y-82204761D01*
X122972959Y-82384352D01*
X122972952Y-82384358D01*
X122922181Y-82435130D01*
X122860858Y-82468615D01*
X122791166Y-82463631D01*
X122735233Y-82421759D01*
X122710816Y-82356295D01*
X122710500Y-82347449D01*
X122710500Y-78874038D01*
X125399500Y-78874038D01*
X125399500Y-79125961D01*
X125438910Y-79374785D01*
X125516760Y-79614383D01*
X125631132Y-79838848D01*
X125779201Y-80042649D01*
X125779205Y-80042654D01*
X125957345Y-80220794D01*
X125957350Y-80220798D01*
X126135117Y-80349952D01*
X126161155Y-80368870D01*
X126304184Y-80441747D01*
X126385616Y-80483239D01*
X126385618Y-80483239D01*
X126385621Y-80483241D01*
X126625215Y-80561090D01*
X126874038Y-80600500D01*
X126874039Y-80600500D01*
X127125961Y-80600500D01*
X127125962Y-80600500D01*
X127374785Y-80561090D01*
X127614379Y-80483241D01*
X127838845Y-80368870D01*
X128042656Y-80220793D01*
X128220793Y-80042656D01*
X128368870Y-79838845D01*
X128483241Y-79614379D01*
X128561090Y-79374785D01*
X128600500Y-79125962D01*
X128600500Y-78874038D01*
X128561090Y-78625215D01*
X128483241Y-78385621D01*
X128483239Y-78385618D01*
X128483239Y-78385616D01*
X128441747Y-78304184D01*
X128368870Y-78161155D01*
X128349952Y-78135117D01*
X128220798Y-77957350D01*
X128220794Y-77957345D01*
X128042654Y-77779205D01*
X128042649Y-77779201D01*
X127838848Y-77631132D01*
X127838847Y-77631131D01*
X127838845Y-77631130D01*
X127722003Y-77571596D01*
X127614383Y-77516760D01*
X127374785Y-77438910D01*
X127125962Y-77399500D01*
X126874038Y-77399500D01*
X126749626Y-77419205D01*
X126625214Y-77438910D01*
X126385616Y-77516760D01*
X126161151Y-77631132D01*
X125957350Y-77779201D01*
X125957345Y-77779205D01*
X125779205Y-77957345D01*
X125779201Y-77957350D01*
X125631132Y-78161151D01*
X125516760Y-78385616D01*
X125438910Y-78625214D01*
X125399500Y-78874038D01*
X122710500Y-78874038D01*
X122710500Y-68715154D01*
X122730185Y-68648115D01*
X122746819Y-68627473D01*
X123839422Y-67534870D01*
X127011171Y-64363120D01*
X127072491Y-64329638D01*
X127142183Y-64334622D01*
X127198116Y-64376494D01*
X127222533Y-64441958D01*
X127213411Y-64498255D01*
X127155320Y-64638503D01*
X127155318Y-64638510D01*
X127124557Y-64793153D01*
X127124557Y-64950846D01*
X127155318Y-65105489D01*
X127155321Y-65105501D01*
X127215659Y-65251172D01*
X127215666Y-65251185D01*
X127303267Y-65382288D01*
X127303270Y-65382292D01*
X127414764Y-65493786D01*
X127414768Y-65493789D01*
X127545871Y-65581390D01*
X127545884Y-65581397D01*
X127691555Y-65641735D01*
X127691560Y-65641737D01*
X127846210Y-65672499D01*
X127846213Y-65672500D01*
X127846215Y-65672500D01*
X127881903Y-65672500D01*
X127948942Y-65692185D01*
X127969584Y-65708819D01*
X143117840Y-80857076D01*
X143151325Y-80918399D01*
X143148090Y-80983075D01*
X143088910Y-81165210D01*
X143088910Y-81165213D01*
X143049500Y-81414038D01*
X143049500Y-81665961D01*
X143088910Y-81914785D01*
X143166760Y-82154383D01*
X143192430Y-82204762D01*
X143269640Y-82356295D01*
X143281132Y-82378848D01*
X143429201Y-82582649D01*
X143429205Y-82582654D01*
X143429207Y-82582656D01*
X143607344Y-82760793D01*
X143607345Y-82760794D01*
X143607344Y-82760794D01*
X143613661Y-82765383D01*
X143656327Y-82820714D01*
X143662305Y-82890327D01*
X143629699Y-82952122D01*
X143568860Y-82986479D01*
X143521378Y-82988174D01*
X143466611Y-82979500D01*
X143293389Y-82979500D01*
X143253728Y-82985781D01*
X143122302Y-83006597D01*
X142957552Y-83060128D01*
X142803211Y-83138768D01*
X142780500Y-83155269D01*
X142663072Y-83240586D01*
X142663070Y-83240588D01*
X142663069Y-83240588D01*
X142540588Y-83363069D01*
X142540588Y-83363070D01*
X142540586Y-83363072D01*
X142496859Y-83423256D01*
X142438768Y-83503211D01*
X142360128Y-83657552D01*
X142306597Y-83822302D01*
X142279500Y-83993389D01*
X142279500Y-84166611D01*
X142306598Y-84337701D01*
X142360127Y-84502445D01*
X142438768Y-84656788D01*
X142540586Y-84796928D01*
X142663072Y-84919414D01*
X142803212Y-85021232D01*
X142957555Y-85099873D01*
X143122299Y-85153402D01*
X143293389Y-85180500D01*
X143293390Y-85180500D01*
X143466610Y-85180500D01*
X143466611Y-85180500D01*
X143637701Y-85153402D01*
X143802445Y-85099873D01*
X143956788Y-85021232D01*
X144096928Y-84919414D01*
X144219414Y-84796928D01*
X144321232Y-84656788D01*
X144399873Y-84502445D01*
X144453402Y-84337701D01*
X144480500Y-84166611D01*
X144480500Y-83993389D01*
X144453402Y-83822299D01*
X144399873Y-83657555D01*
X144321232Y-83503212D01*
X144219414Y-83363072D01*
X144167482Y-83311140D01*
X144133997Y-83249817D01*
X144138981Y-83180125D01*
X144180853Y-83124192D01*
X144246317Y-83099775D01*
X144274561Y-83100986D01*
X144275212Y-83101089D01*
X144275215Y-83101090D01*
X144524038Y-83140500D01*
X144524039Y-83140500D01*
X144775961Y-83140500D01*
X144775962Y-83140500D01*
X145024785Y-83101090D01*
X145264379Y-83023241D01*
X145329204Y-82990210D01*
X145397873Y-82977314D01*
X145462614Y-83003590D01*
X145502872Y-83060696D01*
X145509500Y-83100695D01*
X145509500Y-97563330D01*
X145509499Y-97563348D01*
X145509499Y-97729054D01*
X145509498Y-97729054D01*
X145550423Y-97881785D01*
X145579358Y-97931900D01*
X145579359Y-97931904D01*
X145579360Y-97931904D01*
X145629479Y-98018714D01*
X145629481Y-98018717D01*
X145748349Y-98137585D01*
X145748355Y-98137590D01*
X148927841Y-101317076D01*
X148961326Y-101378399D01*
X148958091Y-101443076D01*
X148898910Y-101625214D01*
X148859500Y-101874038D01*
X148859500Y-102125962D01*
X148898910Y-102374785D01*
X148976760Y-102614383D01*
X149091132Y-102838848D01*
X149239201Y-103042649D01*
X149239205Y-103042654D01*
X149417345Y-103220794D01*
X149417350Y-103220798D01*
X149595117Y-103349952D01*
X149621155Y-103368870D01*
X149699654Y-103408867D01*
X149845616Y-103483239D01*
X149845618Y-103483239D01*
X149845621Y-103483241D01*
X150085215Y-103561090D01*
X150334038Y-103600500D01*
X150334039Y-103600500D01*
X150585961Y-103600500D01*
X150585962Y-103600500D01*
X150834785Y-103561090D01*
X151074379Y-103483241D01*
X151298845Y-103368870D01*
X151502656Y-103220793D01*
X151680793Y-103042656D01*
X151828870Y-102838845D01*
X151943241Y-102614379D01*
X152021090Y-102374785D01*
X152060500Y-102125962D01*
X152060500Y-101874038D01*
X152021090Y-101625215D01*
X151943241Y-101385621D01*
X151943239Y-101385618D01*
X151943239Y-101385616D01*
X151901747Y-101304184D01*
X151828870Y-101161155D01*
X151709859Y-100997350D01*
X151680798Y-100957350D01*
X151680794Y-100957345D01*
X151502654Y-100779205D01*
X151502649Y-100779201D01*
X151298848Y-100631132D01*
X151298847Y-100631131D01*
X151298845Y-100631130D01*
X151228747Y-100595413D01*
X151074383Y-100516760D01*
X150834785Y-100438910D01*
X150585962Y-100399500D01*
X150334038Y-100399500D01*
X150209626Y-100419205D01*
X150085214Y-100438910D01*
X149996175Y-100467841D01*
X149903074Y-100498091D01*
X149833234Y-100500086D01*
X149777076Y-100467841D01*
X146746819Y-97437584D01*
X146713334Y-97376261D01*
X146710500Y-97349903D01*
X146710500Y-85812551D01*
X146730185Y-85745512D01*
X146782989Y-85699757D01*
X146852147Y-85689813D01*
X146915703Y-85718838D01*
X146922181Y-85724870D01*
X146972952Y-85775641D01*
X146972959Y-85775647D01*
X147207006Y-85955238D01*
X147462489Y-86102741D01*
X147462490Y-86102741D01*
X147462493Y-86102743D01*
X147735048Y-86215639D01*
X148020007Y-86291993D01*
X148312494Y-86330500D01*
X148312501Y-86330500D01*
X148607499Y-86330500D01*
X148607506Y-86330500D01*
X148899993Y-86291993D01*
X149184952Y-86215639D01*
X149457507Y-86102743D01*
X149712994Y-85955238D01*
X149947042Y-85775646D01*
X150155646Y-85567042D01*
X150335238Y-85332994D01*
X150482743Y-85077507D01*
X150595639Y-84804952D01*
X150671993Y-84519993D01*
X150710500Y-84227506D01*
X150710500Y-83993389D01*
X152439500Y-83993389D01*
X152439500Y-84166611D01*
X152466598Y-84337701D01*
X152520127Y-84502445D01*
X152598768Y-84656788D01*
X152700586Y-84796928D01*
X152823072Y-84919414D01*
X152963212Y-85021232D01*
X153117555Y-85099873D01*
X153282299Y-85153402D01*
X153453389Y-85180500D01*
X153453390Y-85180500D01*
X153626610Y-85180500D01*
X153626611Y-85180500D01*
X153797701Y-85153402D01*
X153962445Y-85099873D01*
X154116788Y-85021232D01*
X154256928Y-84919414D01*
X154379414Y-84796928D01*
X154481232Y-84656788D01*
X154559873Y-84502445D01*
X154613402Y-84337701D01*
X154640500Y-84166611D01*
X154640500Y-83993389D01*
X154613402Y-83822299D01*
X154559873Y-83657555D01*
X154481232Y-83503212D01*
X154379414Y-83363072D01*
X154256928Y-83240586D01*
X154116788Y-83138768D01*
X153962445Y-83060127D01*
X153797701Y-83006598D01*
X153797699Y-83006597D01*
X153797698Y-83006597D01*
X153666271Y-82985781D01*
X153626611Y-82979500D01*
X153453389Y-82979500D01*
X153413728Y-82985781D01*
X153282302Y-83006597D01*
X153117552Y-83060128D01*
X152963211Y-83138768D01*
X152940500Y-83155269D01*
X152823072Y-83240586D01*
X152823070Y-83240588D01*
X152823069Y-83240588D01*
X152700588Y-83363069D01*
X152700588Y-83363070D01*
X152700586Y-83363072D01*
X152656859Y-83423256D01*
X152598768Y-83503211D01*
X152520128Y-83657552D01*
X152466597Y-83822302D01*
X152439500Y-83993389D01*
X150710500Y-83993389D01*
X150710500Y-83932494D01*
X150671993Y-83640007D01*
X150595639Y-83355048D01*
X150482743Y-83082493D01*
X150437188Y-83003590D01*
X150335238Y-82827006D01*
X150155647Y-82592959D01*
X150155641Y-82592952D01*
X149947047Y-82384358D01*
X149947040Y-82384352D01*
X149712993Y-82204761D01*
X149457510Y-82057258D01*
X149457500Y-82057254D01*
X149184961Y-81944364D01*
X149184954Y-81944362D01*
X149184952Y-81944361D01*
X148899993Y-81868007D01*
X148851113Y-81861571D01*
X148607513Y-81829500D01*
X148607506Y-81829500D01*
X148312494Y-81829500D01*
X148312486Y-81829500D01*
X148034085Y-81866153D01*
X148020007Y-81868007D01*
X147845428Y-81914785D01*
X147735048Y-81944361D01*
X147735038Y-81944364D01*
X147462499Y-82057254D01*
X147462489Y-82057258D01*
X147207006Y-82204761D01*
X146972959Y-82384352D01*
X146972952Y-82384358D01*
X146922181Y-82435130D01*
X146860858Y-82468615D01*
X146791166Y-82463631D01*
X146735233Y-82421759D01*
X146710816Y-82356295D01*
X146710500Y-82347449D01*
X146710500Y-74339059D01*
X146710501Y-74339046D01*
X146710501Y-74303464D01*
X146730186Y-74236425D01*
X146782990Y-74190670D01*
X146852148Y-74180726D01*
X146915704Y-74209751D01*
X146922182Y-74215783D01*
X150160647Y-77454248D01*
X150194132Y-77515571D01*
X150189148Y-77585263D01*
X150147276Y-77641196D01*
X150145852Y-77642247D01*
X149957345Y-77779205D01*
X149779205Y-77957345D01*
X149779201Y-77957350D01*
X149631132Y-78161151D01*
X149516760Y-78385616D01*
X149438910Y-78625214D01*
X149399500Y-78874038D01*
X149399500Y-79125961D01*
X149438910Y-79374785D01*
X149516760Y-79614383D01*
X149631132Y-79838848D01*
X149779201Y-80042649D01*
X149779205Y-80042654D01*
X149957345Y-80220794D01*
X149957350Y-80220798D01*
X150135117Y-80349952D01*
X150161155Y-80368870D01*
X150304184Y-80441747D01*
X150385616Y-80483239D01*
X150385618Y-80483239D01*
X150385621Y-80483241D01*
X150625215Y-80561090D01*
X150874038Y-80600500D01*
X150874039Y-80600500D01*
X151125961Y-80600500D01*
X151125962Y-80600500D01*
X151374785Y-80561090D01*
X151614379Y-80483241D01*
X151838845Y-80368870D01*
X152042656Y-80220793D01*
X152220793Y-80042656D01*
X152368870Y-79838845D01*
X152483241Y-79614379D01*
X152561090Y-79374785D01*
X152600500Y-79125962D01*
X152600500Y-78874038D01*
X152561090Y-78625215D01*
X152483241Y-78385621D01*
X152483239Y-78385618D01*
X152483239Y-78385616D01*
X152441747Y-78304184D01*
X152368870Y-78161155D01*
X152349952Y-78135117D01*
X152220798Y-77957350D01*
X152220794Y-77957345D01*
X152042654Y-77779205D01*
X152042649Y-77779201D01*
X151838848Y-77631132D01*
X151838847Y-77631131D01*
X151838845Y-77631130D01*
X151668206Y-77544185D01*
X151617410Y-77496210D01*
X151600501Y-77433700D01*
X151600501Y-77365311D01*
X151600501Y-77365309D01*
X151559577Y-77212581D01*
X151530639Y-77162461D01*
X151480520Y-77075650D01*
X151368716Y-76963846D01*
X151368715Y-76963845D01*
X151364385Y-76959515D01*
X151364374Y-76959505D01*
X145676819Y-71271950D01*
X145643334Y-71210627D01*
X145640500Y-71184269D01*
X145640500Y-58412127D01*
X145660185Y-58345088D01*
X145712989Y-58299333D01*
X145782147Y-58289389D01*
X145802813Y-58294194D01*
X145873757Y-58317246D01*
X146083713Y-58350500D01*
X146083714Y-58350500D01*
X146296286Y-58350500D01*
X146296287Y-58350500D01*
X146506243Y-58317246D01*
X146708412Y-58251557D01*
X146897816Y-58155051D01*
X146984138Y-58092335D01*
X147069786Y-58030109D01*
X147069788Y-58030106D01*
X147069792Y-58030104D01*
X147220104Y-57879792D01*
X147220106Y-57879788D01*
X147220109Y-57879786D01*
X147345048Y-57707820D01*
X147345047Y-57707820D01*
X147345051Y-57707816D01*
X147349514Y-57699054D01*
X147397488Y-57648259D01*
X147465308Y-57631463D01*
X147531444Y-57653999D01*
X147570486Y-57699056D01*
X147574951Y-57707820D01*
X147699890Y-57879786D01*
X147850213Y-58030109D01*
X148022179Y-58155048D01*
X148022181Y-58155049D01*
X148022184Y-58155051D01*
X148211588Y-58251557D01*
X148413757Y-58317246D01*
X148623713Y-58350500D01*
X148623714Y-58350500D01*
X148836286Y-58350500D01*
X148836287Y-58350500D01*
X149046243Y-58317246D01*
X149248412Y-58251557D01*
X149437816Y-58155051D01*
X149524138Y-58092335D01*
X149609786Y-58030109D01*
X149609788Y-58030106D01*
X149609792Y-58030104D01*
X149760104Y-57879792D01*
X149760106Y-57879788D01*
X149760109Y-57879786D01*
X149885048Y-57707820D01*
X149885047Y-57707820D01*
X149885051Y-57707816D01*
X149889514Y-57699054D01*
X149937488Y-57648259D01*
X150005308Y-57631463D01*
X150071444Y-57653999D01*
X150110486Y-57699056D01*
X150114951Y-57707820D01*
X150239890Y-57879786D01*
X150390213Y-58030109D01*
X150562179Y-58155048D01*
X150562181Y-58155049D01*
X150562184Y-58155051D01*
X150751588Y-58251557D01*
X150953757Y-58317246D01*
X151163713Y-58350500D01*
X151163714Y-58350500D01*
X151376286Y-58350500D01*
X151376287Y-58350500D01*
X151586243Y-58317246D01*
X151788412Y-58251557D01*
X151977816Y-58155051D01*
X152064138Y-58092335D01*
X152149786Y-58030109D01*
X152149788Y-58030106D01*
X152149792Y-58030104D01*
X152300104Y-57879792D01*
X152300106Y-57879788D01*
X152300109Y-57879786D01*
X152425048Y-57707820D01*
X152425047Y-57707820D01*
X152425051Y-57707816D01*
X152429514Y-57699054D01*
X152477488Y-57648259D01*
X152545308Y-57631463D01*
X152611444Y-57653999D01*
X152650486Y-57699056D01*
X152654951Y-57707820D01*
X152779890Y-57879786D01*
X152930213Y-58030109D01*
X153102179Y-58155048D01*
X153102181Y-58155049D01*
X153102184Y-58155051D01*
X153291588Y-58251557D01*
X153493757Y-58317246D01*
X153703713Y-58350500D01*
X153703714Y-58350500D01*
X153916286Y-58350500D01*
X153916287Y-58350500D01*
X154126243Y-58317246D01*
X154328412Y-58251557D01*
X154517816Y-58155051D01*
X154689792Y-58030104D01*
X154803329Y-57916566D01*
X154864648Y-57883084D01*
X154934340Y-57888068D01*
X154990274Y-57929939D01*
X155007189Y-57960917D01*
X155056202Y-58092328D01*
X155056206Y-58092335D01*
X155142452Y-58207544D01*
X155142455Y-58207547D01*
X155257664Y-58293793D01*
X155257671Y-58293797D01*
X155392517Y-58344091D01*
X155392516Y-58344091D01*
X155399444Y-58344835D01*
X155452127Y-58350500D01*
X157247872Y-58350499D01*
X157307483Y-58344091D01*
X157442331Y-58293796D01*
X157557546Y-58207546D01*
X157643796Y-58092331D01*
X157694091Y-57957483D01*
X157700500Y-57897873D01*
X157700499Y-56102128D01*
X157694091Y-56042517D01*
X157692810Y-56039083D01*
X157643797Y-55907671D01*
X157643793Y-55907664D01*
X157557547Y-55792455D01*
X157557544Y-55792452D01*
X157442335Y-55706206D01*
X157442328Y-55706202D01*
X157307482Y-55655908D01*
X157307483Y-55655908D01*
X157247883Y-55649501D01*
X157247881Y-55649500D01*
X157247873Y-55649500D01*
X157247864Y-55649500D01*
X155452129Y-55649500D01*
X155452123Y-55649501D01*
X155392516Y-55655908D01*
X155257671Y-55706202D01*
X155257664Y-55706206D01*
X155142455Y-55792452D01*
X155142452Y-55792455D01*
X155056206Y-55907664D01*
X155056203Y-55907669D01*
X155007189Y-56039083D01*
X154965317Y-56095016D01*
X154899853Y-56119433D01*
X154831580Y-56104581D01*
X154803326Y-56083430D01*
X154689786Y-55969890D01*
X154517820Y-55844951D01*
X154328414Y-55748444D01*
X154328413Y-55748443D01*
X154328412Y-55748443D01*
X154126243Y-55682754D01*
X154126241Y-55682753D01*
X154126240Y-55682753D01*
X153964957Y-55657208D01*
X153916287Y-55649500D01*
X153703713Y-55649500D01*
X153675006Y-55654046D01*
X153493757Y-55682753D01*
X153451473Y-55696492D01*
X153381632Y-55698486D01*
X153325476Y-55666241D01*
X153147590Y-55488355D01*
X153147588Y-55488352D01*
X153028717Y-55369481D01*
X153028716Y-55369480D01*
X152941904Y-55319360D01*
X152941904Y-55319359D01*
X152941900Y-55319358D01*
X152891785Y-55290423D01*
X152739057Y-55249499D01*
X152580943Y-55249499D01*
X152573347Y-55249499D01*
X152573331Y-55249500D01*
X146760149Y-55249500D01*
X146602035Y-55249500D01*
X146449307Y-55290423D01*
X146449306Y-55290423D01*
X146449304Y-55290424D01*
X146449301Y-55290425D01*
X146399188Y-55319359D01*
X146399187Y-55319360D01*
X146355781Y-55344420D01*
X146312377Y-55369479D01*
X146312374Y-55369481D01*
X146200572Y-55481284D01*
X146200570Y-55481286D01*
X146125941Y-55555915D01*
X146066429Y-55615427D01*
X146005106Y-55648911D01*
X146002940Y-55649362D01*
X145847596Y-55680262D01*
X145847593Y-55680263D01*
X145728980Y-55729392D01*
X145719851Y-55732760D01*
X145671588Y-55748442D01*
X145482182Y-55844949D01*
X145310211Y-55969892D01*
X145310203Y-55969899D01*
X145290518Y-55989583D01*
X145229194Y-56023065D01*
X145159502Y-56018078D01*
X145115160Y-55989579D01*
X144613936Y-55488355D01*
X144613934Y-55488352D01*
X144495063Y-55369481D01*
X144495062Y-55369480D01*
X144408250Y-55319360D01*
X144408250Y-55319359D01*
X144408246Y-55319358D01*
X144358131Y-55290423D01*
X144205403Y-55249499D01*
X144047289Y-55249499D01*
X144039693Y-55249499D01*
X144039677Y-55249500D01*
X140720323Y-55249500D01*
X140720307Y-55249499D01*
X140712711Y-55249499D01*
X140554597Y-55249499D01*
X140447241Y-55278265D01*
X140401864Y-55290424D01*
X140401863Y-55290425D01*
X140351750Y-55319359D01*
X140351749Y-55319360D01*
X140308343Y-55344420D01*
X140264939Y-55369479D01*
X140264936Y-55369481D01*
X139644838Y-55989580D01*
X139583515Y-56023065D01*
X139513823Y-56018081D01*
X139469476Y-55989580D01*
X139449786Y-55969890D01*
X139277820Y-55844951D01*
X139088414Y-55748444D01*
X139088413Y-55748443D01*
X139088412Y-55748443D01*
X138886243Y-55682754D01*
X138886241Y-55682753D01*
X138886240Y-55682753D01*
X138724957Y-55657208D01*
X138676287Y-55649500D01*
X138463713Y-55649500D01*
X138415042Y-55657208D01*
X138253760Y-55682753D01*
X138051585Y-55748444D01*
X137862179Y-55844951D01*
X137690213Y-55969890D01*
X137539890Y-56120213D01*
X137414951Y-56292179D01*
X137318444Y-56481585D01*
X137252753Y-56683760D01*
X137223801Y-56866560D01*
X137219500Y-56893713D01*
X137219500Y-57106287D01*
X137227306Y-57155571D01*
X137252753Y-57316239D01*
X137275804Y-57387182D01*
X137277799Y-57457023D01*
X137241719Y-57516856D01*
X137179018Y-57547684D01*
X137157873Y-57549500D01*
X130782412Y-57549500D01*
X130744805Y-57559576D01*
X130744806Y-57559577D01*
X130629685Y-57590423D01*
X130629680Y-57590426D01*
X130492761Y-57669475D01*
X130492753Y-57669481D01*
X129779481Y-58382753D01*
X129779479Y-58382756D01*
X129740043Y-58451063D01*
X129740042Y-58451065D01*
X129700423Y-58519685D01*
X129700423Y-58519686D01*
X129659499Y-58672414D01*
X129659499Y-58672416D01*
X129659499Y-58840517D01*
X129659500Y-58840530D01*
X129659500Y-63313330D01*
X129659499Y-63313348D01*
X129659499Y-63479054D01*
X129659498Y-63479054D01*
X129700423Y-63631785D01*
X129729358Y-63681900D01*
X129729359Y-63681904D01*
X129729360Y-63681904D01*
X129778206Y-63766510D01*
X129779479Y-63768714D01*
X129779481Y-63768717D01*
X129898349Y-63887585D01*
X129898355Y-63887590D01*
X130025425Y-64014660D01*
X130058910Y-64075983D01*
X130059361Y-64078149D01*
X130090261Y-64233491D01*
X130090264Y-64233501D01*
X130150602Y-64379172D01*
X130150609Y-64379185D01*
X130238210Y-64510288D01*
X130238213Y-64510292D01*
X130349707Y-64621786D01*
X130349711Y-64621789D01*
X130480814Y-64709390D01*
X130480827Y-64709397D01*
X130602170Y-64759658D01*
X130626503Y-64769737D01*
X130744248Y-64793158D01*
X130781153Y-64800499D01*
X130781156Y-64800500D01*
X130781158Y-64800500D01*
X130938844Y-64800500D01*
X130938845Y-64800499D01*
X131093497Y-64769737D01*
X131239179Y-64709394D01*
X131370289Y-64621789D01*
X131481789Y-64510289D01*
X131569394Y-64379179D01*
X131629737Y-64233497D01*
X131660500Y-64078842D01*
X131660500Y-63921158D01*
X131660500Y-63921155D01*
X131660499Y-63921153D01*
X131652417Y-63880521D01*
X131629737Y-63766503D01*
X131629735Y-63766498D01*
X131569397Y-63620827D01*
X131569390Y-63620814D01*
X131481789Y-63489711D01*
X131481786Y-63489707D01*
X131370292Y-63378213D01*
X131370288Y-63378210D01*
X131239185Y-63290609D01*
X131239172Y-63290602D01*
X131093501Y-63230264D01*
X131093491Y-63230261D01*
X130960308Y-63203769D01*
X130898397Y-63171384D01*
X130863823Y-63110668D01*
X130860500Y-63082152D01*
X130860500Y-60149097D01*
X130880185Y-60082058D01*
X130932989Y-60036303D01*
X131002147Y-60026359D01*
X131065703Y-60055384D01*
X131072181Y-60061416D01*
X145473181Y-74462416D01*
X145506666Y-74523739D01*
X145509500Y-74550097D01*
X145509500Y-79979304D01*
X145489815Y-80046343D01*
X145437011Y-80092098D01*
X145367853Y-80102042D01*
X145329206Y-80089789D01*
X145264386Y-80056761D01*
X145024785Y-79978910D01*
X144775962Y-79939500D01*
X144524038Y-79939500D01*
X144441097Y-79952636D01*
X144275213Y-79978910D01*
X144275210Y-79978910D01*
X144093075Y-80038090D01*
X144023234Y-80040085D01*
X143967076Y-80007840D01*
X128745490Y-64786255D01*
X128712005Y-64724932D01*
X128711583Y-64722909D01*
X128694794Y-64638503D01*
X128641688Y-64510292D01*
X128634454Y-64492827D01*
X128634447Y-64492814D01*
X128546846Y-64361711D01*
X128546843Y-64361707D01*
X128435349Y-64250213D01*
X128435345Y-64250210D01*
X128304242Y-64162609D01*
X128304229Y-64162602D01*
X128158558Y-64102264D01*
X128158546Y-64102261D01*
X128003902Y-64071500D01*
X128003899Y-64071500D01*
X127846215Y-64071500D01*
X127846212Y-64071500D01*
X127691567Y-64102261D01*
X127691555Y-64102264D01*
X127551314Y-64160353D01*
X127481844Y-64167822D01*
X127419365Y-64136546D01*
X127383713Y-64076457D01*
X127386208Y-64006632D01*
X127416179Y-63958113D01*
X128539721Y-62834571D01*
X128601042Y-62801088D01*
X128603209Y-62800637D01*
X128603898Y-62800500D01*
X128603899Y-62800500D01*
X128758554Y-62769737D01*
X128904236Y-62709394D01*
X129035346Y-62621789D01*
X129146846Y-62510289D01*
X129234451Y-62379179D01*
X129294794Y-62233497D01*
X129325557Y-62078842D01*
X129325557Y-61921158D01*
X129325557Y-61921155D01*
X129325556Y-61921153D01*
X129294795Y-61766510D01*
X129294795Y-61766508D01*
X129294794Y-61766503D01*
X129294792Y-61766498D01*
X129234454Y-61620827D01*
X129234447Y-61620814D01*
X129146846Y-61489711D01*
X129146843Y-61489707D01*
X129035349Y-61378213D01*
X129035345Y-61378210D01*
X128904242Y-61290609D01*
X128904229Y-61290602D01*
X128758558Y-61230264D01*
X128758546Y-61230261D01*
X128603902Y-61199500D01*
X128603899Y-61199500D01*
X128446215Y-61199500D01*
X128446212Y-61199500D01*
X128291567Y-61230261D01*
X128291555Y-61230264D01*
X128145884Y-61290602D01*
X128145871Y-61290609D01*
X128014768Y-61378210D01*
X128014764Y-61378213D01*
X127903270Y-61489707D01*
X127903267Y-61489711D01*
X127815666Y-61620814D01*
X127815659Y-61620827D01*
X127755321Y-61766498D01*
X127755318Y-61766508D01*
X127724419Y-61921848D01*
X127692034Y-61983759D01*
X127690483Y-61985337D01*
X121741286Y-67934535D01*
X121629481Y-68046339D01*
X121629480Y-68046341D01*
X121595931Y-68104451D01*
X121579361Y-68133151D01*
X121579359Y-68133153D01*
X121550425Y-68183266D01*
X121550424Y-68183267D01*
X121550423Y-68183272D01*
X121509499Y-68336000D01*
X121509499Y-68336002D01*
X121509499Y-68504103D01*
X121509500Y-68504116D01*
X121509500Y-79979304D01*
X121489815Y-80046343D01*
X121437011Y-80092098D01*
X121367853Y-80102042D01*
X121329206Y-80089789D01*
X121264386Y-80056761D01*
X121024785Y-79978910D01*
X120775962Y-79939500D01*
X120524038Y-79939500D01*
X120399626Y-79959205D01*
X120275214Y-79978910D01*
X120035616Y-80056760D01*
X119811151Y-80171132D01*
X119607350Y-80319201D01*
X119607345Y-80319205D01*
X119429205Y-80497345D01*
X119429201Y-80497350D01*
X119281132Y-80701151D01*
X119166760Y-80925616D01*
X119088910Y-81165214D01*
X119049500Y-81414038D01*
X119049500Y-81665961D01*
X119088910Y-81914785D01*
X119166760Y-82154383D01*
X119192430Y-82204762D01*
X119269640Y-82356295D01*
X119281132Y-82378848D01*
X119429201Y-82582649D01*
X119429205Y-82582654D01*
X119429207Y-82582656D01*
X119607344Y-82760793D01*
X119607345Y-82760794D01*
X119607344Y-82760794D01*
X119613661Y-82765383D01*
X119656327Y-82820714D01*
X119662305Y-82890327D01*
X119629699Y-82952122D01*
X119568860Y-82986479D01*
X119521378Y-82988174D01*
X119466611Y-82979500D01*
X119293389Y-82979500D01*
X119253728Y-82985781D01*
X119122302Y-83006597D01*
X118957547Y-83060129D01*
X118953046Y-83061994D01*
X118952260Y-83060096D01*
X118892038Y-83071362D01*
X118827316Y-83045040D01*
X118787100Y-82987905D01*
X118780500Y-82947990D01*
X118780500Y-68315489D01*
X118800185Y-68248450D01*
X118816819Y-68227808D01*
X123666417Y-63378210D01*
X128542994Y-58501632D01*
X128604315Y-58468149D01*
X128606482Y-58467698D01*
X128690109Y-58451063D01*
X128761829Y-58436797D01*
X128907511Y-58376454D01*
X129038621Y-58288849D01*
X129150121Y-58177349D01*
X129237726Y-58046239D01*
X129298069Y-57900557D01*
X129328832Y-57745902D01*
X129328832Y-57588218D01*
X129328832Y-57588215D01*
X129328831Y-57588213D01*
X129320769Y-57547684D01*
X129298069Y-57433563D01*
X129249474Y-57316243D01*
X129237729Y-57287887D01*
X129237722Y-57287874D01*
X129150121Y-57156771D01*
X129150118Y-57156767D01*
X129038624Y-57045273D01*
X129038620Y-57045270D01*
X128907517Y-56957669D01*
X128907504Y-56957662D01*
X128761833Y-56897324D01*
X128761821Y-56897321D01*
X128607177Y-56866560D01*
X128607174Y-56866560D01*
X128449490Y-56866560D01*
X128449487Y-56866560D01*
X128294842Y-56897321D01*
X128294830Y-56897324D01*
X128149159Y-56957662D01*
X128149146Y-56957669D01*
X128018043Y-57045270D01*
X128018039Y-57045273D01*
X127906545Y-57156767D01*
X127906542Y-57156771D01*
X127818941Y-57287874D01*
X127818934Y-57287887D01*
X127758596Y-57433558D01*
X127758593Y-57433568D01*
X127727693Y-57588910D01*
X127695308Y-57650821D01*
X127693757Y-57652399D01*
X117699481Y-67646674D01*
X117699479Y-67646677D01*
X117649361Y-67733486D01*
X117649359Y-67733488D01*
X117620425Y-67783601D01*
X117620424Y-67783602D01*
X117620423Y-67783607D01*
X117579499Y-67936335D01*
X117579499Y-67936337D01*
X117579499Y-68104438D01*
X117579500Y-68104451D01*
X117579500Y-86169902D01*
X117559815Y-86236941D01*
X117543181Y-86257583D01*
X103292923Y-100507840D01*
X103231600Y-100541325D01*
X103166924Y-100538090D01*
X102984787Y-100478910D01*
X102818903Y-100452636D01*
X102735962Y-100439500D01*
X102484038Y-100439500D01*
X102359626Y-100459205D01*
X102235214Y-100478910D01*
X101995616Y-100556760D01*
X101771151Y-100671132D01*
X101567350Y-100819201D01*
X101567345Y-100819205D01*
X101389205Y-100997345D01*
X101389201Y-100997350D01*
X101241132Y-101201151D01*
X101126760Y-101425616D01*
X101048910Y-101665214D01*
X101009500Y-101914038D01*
X78500500Y-101914038D01*
X78500500Y-83993389D01*
X94279500Y-83993389D01*
X94279500Y-84166611D01*
X94306598Y-84337701D01*
X94360127Y-84502445D01*
X94438768Y-84656788D01*
X94540586Y-84796928D01*
X94663072Y-84919414D01*
X94803212Y-85021232D01*
X94957555Y-85099873D01*
X95122299Y-85153402D01*
X95293389Y-85180500D01*
X95293390Y-85180500D01*
X95466610Y-85180500D01*
X95466611Y-85180500D01*
X95637701Y-85153402D01*
X95802445Y-85099873D01*
X95956788Y-85021232D01*
X96096928Y-84919414D01*
X96219414Y-84796928D01*
X96321232Y-84656788D01*
X96399873Y-84502445D01*
X96453402Y-84337701D01*
X96480500Y-84166611D01*
X96480500Y-83993389D01*
X96470854Y-83932486D01*
X98209500Y-83932486D01*
X98209500Y-84227513D01*
X98241571Y-84471113D01*
X98248007Y-84519993D01*
X98322212Y-84796930D01*
X98324361Y-84804951D01*
X98324364Y-84804961D01*
X98437254Y-85077500D01*
X98437258Y-85077510D01*
X98584761Y-85332993D01*
X98764352Y-85567040D01*
X98764358Y-85567047D01*
X98972952Y-85775641D01*
X98972959Y-85775647D01*
X99207006Y-85955238D01*
X99462489Y-86102741D01*
X99462490Y-86102741D01*
X99462493Y-86102743D01*
X99735048Y-86215639D01*
X100020007Y-86291993D01*
X100312494Y-86330500D01*
X100312501Y-86330500D01*
X100607499Y-86330500D01*
X100607506Y-86330500D01*
X100899993Y-86291993D01*
X101184952Y-86215639D01*
X101457507Y-86102743D01*
X101712994Y-85955238D01*
X101947042Y-85775646D01*
X102155646Y-85567042D01*
X102335238Y-85332994D01*
X102482743Y-85077507D01*
X102595639Y-84804952D01*
X102671993Y-84519993D01*
X102710500Y-84227506D01*
X102710500Y-83993389D01*
X104439500Y-83993389D01*
X104439500Y-84166611D01*
X104466598Y-84337701D01*
X104520127Y-84502445D01*
X104598768Y-84656788D01*
X104700586Y-84796928D01*
X104823072Y-84919414D01*
X104963212Y-85021232D01*
X105117555Y-85099873D01*
X105282299Y-85153402D01*
X105453389Y-85180500D01*
X105453390Y-85180500D01*
X105626610Y-85180500D01*
X105626611Y-85180500D01*
X105797701Y-85153402D01*
X105962445Y-85099873D01*
X106116788Y-85021232D01*
X106256928Y-84919414D01*
X106379414Y-84796928D01*
X106481232Y-84656788D01*
X106559873Y-84502445D01*
X106613402Y-84337701D01*
X106640500Y-84166611D01*
X106640500Y-83993389D01*
X106613402Y-83822299D01*
X106559873Y-83657555D01*
X106481232Y-83503212D01*
X106379414Y-83363072D01*
X106256928Y-83240586D01*
X106116788Y-83138768D01*
X105962445Y-83060127D01*
X105797701Y-83006598D01*
X105797699Y-83006597D01*
X105797698Y-83006597D01*
X105666271Y-82985781D01*
X105626611Y-82979500D01*
X105453389Y-82979500D01*
X105413728Y-82985781D01*
X105282302Y-83006597D01*
X105117552Y-83060128D01*
X104963211Y-83138768D01*
X104940500Y-83155269D01*
X104823072Y-83240586D01*
X104823070Y-83240588D01*
X104823069Y-83240588D01*
X104700588Y-83363069D01*
X104700588Y-83363070D01*
X104700586Y-83363072D01*
X104656859Y-83423256D01*
X104598768Y-83503211D01*
X104520128Y-83657552D01*
X104466597Y-83822302D01*
X104439500Y-83993389D01*
X102710500Y-83993389D01*
X102710500Y-83932494D01*
X102671993Y-83640007D01*
X102595639Y-83355048D01*
X102482743Y-83082493D01*
X102437188Y-83003590D01*
X102335238Y-82827006D01*
X102155647Y-82592959D01*
X102155641Y-82592952D01*
X101947047Y-82384358D01*
X101947040Y-82384352D01*
X101712993Y-82204761D01*
X101457510Y-82057258D01*
X101457500Y-82057254D01*
X101184961Y-81944364D01*
X101184954Y-81944362D01*
X101184952Y-81944361D01*
X100899993Y-81868007D01*
X100851113Y-81861571D01*
X100607513Y-81829500D01*
X100607506Y-81829500D01*
X100312494Y-81829500D01*
X100312486Y-81829500D01*
X100034085Y-81866153D01*
X100020007Y-81868007D01*
X99845428Y-81914785D01*
X99735048Y-81944361D01*
X99735038Y-81944364D01*
X99462499Y-82057254D01*
X99462489Y-82057258D01*
X99207006Y-82204761D01*
X98972959Y-82384352D01*
X98972952Y-82384358D01*
X98764358Y-82592952D01*
X98764352Y-82592959D01*
X98584761Y-82827006D01*
X98437258Y-83082489D01*
X98437254Y-83082499D01*
X98324364Y-83355038D01*
X98324361Y-83355048D01*
X98248008Y-83640004D01*
X98248006Y-83640015D01*
X98209500Y-83932486D01*
X96470854Y-83932486D01*
X96453402Y-83822299D01*
X96399873Y-83657555D01*
X96321232Y-83503212D01*
X96219414Y-83363072D01*
X96167482Y-83311140D01*
X96133997Y-83249817D01*
X96138981Y-83180125D01*
X96180853Y-83124192D01*
X96246317Y-83099775D01*
X96274561Y-83100986D01*
X96275212Y-83101089D01*
X96275215Y-83101090D01*
X96524038Y-83140500D01*
X96524039Y-83140500D01*
X96775961Y-83140500D01*
X96775962Y-83140500D01*
X97024785Y-83101090D01*
X97264379Y-83023241D01*
X97488845Y-82908870D01*
X97692656Y-82760793D01*
X97870793Y-82582656D01*
X98018870Y-82378845D01*
X98133241Y-82154379D01*
X98211090Y-81914785D01*
X98250500Y-81665962D01*
X98250500Y-81414038D01*
X98211090Y-81165215D01*
X98133241Y-80925621D01*
X98133239Y-80925618D01*
X98133239Y-80925616D01*
X98091747Y-80844184D01*
X98018870Y-80701155D01*
X97917107Y-80561090D01*
X97870798Y-80497350D01*
X97870794Y-80497345D01*
X97692654Y-80319205D01*
X97692649Y-80319201D01*
X97488848Y-80171132D01*
X97488847Y-80171131D01*
X97488845Y-80171130D01*
X97418747Y-80135413D01*
X97264383Y-80056760D01*
X97024785Y-79978910D01*
X96775962Y-79939500D01*
X96524038Y-79939500D01*
X96399626Y-79959205D01*
X96275214Y-79978910D01*
X96035616Y-80056760D01*
X95811151Y-80171132D01*
X95607350Y-80319201D01*
X95607345Y-80319205D01*
X95429205Y-80497345D01*
X95429201Y-80497350D01*
X95281132Y-80701151D01*
X95166760Y-80925616D01*
X95088910Y-81165214D01*
X95049500Y-81414038D01*
X95049500Y-81665961D01*
X95088910Y-81914785D01*
X95166760Y-82154383D01*
X95192430Y-82204762D01*
X95269640Y-82356295D01*
X95281132Y-82378848D01*
X95429201Y-82582649D01*
X95429205Y-82582654D01*
X95429207Y-82582656D01*
X95607344Y-82760793D01*
X95607345Y-82760794D01*
X95607344Y-82760794D01*
X95613661Y-82765383D01*
X95656327Y-82820714D01*
X95662305Y-82890327D01*
X95629699Y-82952122D01*
X95568860Y-82986479D01*
X95521378Y-82988174D01*
X95466611Y-82979500D01*
X95293389Y-82979500D01*
X95253728Y-82985781D01*
X95122302Y-83006597D01*
X94957552Y-83060128D01*
X94803211Y-83138768D01*
X94780500Y-83155269D01*
X94663072Y-83240586D01*
X94663070Y-83240588D01*
X94663069Y-83240588D01*
X94540588Y-83363069D01*
X94540588Y-83363070D01*
X94540586Y-83363072D01*
X94496859Y-83423256D01*
X94438768Y-83503211D01*
X94360128Y-83657552D01*
X94306597Y-83822302D01*
X94279500Y-83993389D01*
X78500500Y-83993389D01*
X78500500Y-78874038D01*
X101399500Y-78874038D01*
X101399500Y-79125961D01*
X101438910Y-79374785D01*
X101516760Y-79614383D01*
X101631132Y-79838848D01*
X101779201Y-80042649D01*
X101779205Y-80042654D01*
X101957345Y-80220794D01*
X101957350Y-80220798D01*
X102135117Y-80349952D01*
X102161155Y-80368870D01*
X102304184Y-80441747D01*
X102385616Y-80483239D01*
X102385618Y-80483239D01*
X102385621Y-80483241D01*
X102625215Y-80561090D01*
X102874038Y-80600500D01*
X102874039Y-80600500D01*
X103125961Y-80600500D01*
X103125962Y-80600500D01*
X103374785Y-80561090D01*
X103614379Y-80483241D01*
X103838845Y-80368870D01*
X104042656Y-80220793D01*
X104220793Y-80042656D01*
X104368870Y-79838845D01*
X104483241Y-79614379D01*
X104561090Y-79374785D01*
X104600500Y-79125962D01*
X104600500Y-78874038D01*
X104561090Y-78625215D01*
X104483241Y-78385621D01*
X104483239Y-78385618D01*
X104483239Y-78385616D01*
X104441747Y-78304184D01*
X104368870Y-78161155D01*
X104349952Y-78135117D01*
X104220798Y-77957350D01*
X104220794Y-77957345D01*
X104042654Y-77779205D01*
X104042649Y-77779201D01*
X103838848Y-77631132D01*
X103838847Y-77631131D01*
X103838845Y-77631130D01*
X103722003Y-77571596D01*
X103614383Y-77516760D01*
X103374785Y-77438910D01*
X103125962Y-77399500D01*
X102874038Y-77399500D01*
X102749626Y-77419205D01*
X102625214Y-77438910D01*
X102385616Y-77516760D01*
X102161151Y-77631132D01*
X101957350Y-77779201D01*
X101957345Y-77779205D01*
X101779205Y-77957345D01*
X101779201Y-77957350D01*
X101631132Y-78161151D01*
X101516760Y-78385616D01*
X101438910Y-78625214D01*
X101399500Y-78874038D01*
X78500500Y-78874038D01*
X78500500Y-57141881D01*
X78520185Y-57074842D01*
X78572989Y-57029087D01*
X78642147Y-57019143D01*
X78681753Y-57031890D01*
X78919348Y-57155575D01*
X79073715Y-57189798D01*
X79231679Y-57182901D01*
X79382476Y-57135355D01*
X79515829Y-57050400D01*
X79622649Y-56933825D01*
X79695658Y-56793577D01*
X79716922Y-56697661D01*
X79750650Y-56636472D01*
X79812106Y-56603230D01*
X79837983Y-56600500D01*
X82162017Y-56600500D01*
X82229056Y-56620185D01*
X82274811Y-56672989D01*
X82283076Y-56697656D01*
X82304342Y-56793577D01*
X82317162Y-56818204D01*
X82358348Y-56897324D01*
X82377350Y-56933826D01*
X82484171Y-57050400D01*
X82484174Y-57050402D01*
X82484176Y-57050404D01*
X82571895Y-57106287D01*
X82617524Y-57135356D01*
X82768320Y-57182902D01*
X82926285Y-57189798D01*
X82926293Y-57189796D01*
X82926295Y-57189796D01*
X82969854Y-57180138D01*
X83080652Y-57155575D01*
X83420419Y-56978702D01*
X83488971Y-56965208D01*
X83553938Y-56990918D01*
X83565355Y-57001011D01*
X83631284Y-57066940D01*
X83631286Y-57066941D01*
X83631290Y-57066944D01*
X83749783Y-57135355D01*
X83768216Y-57145997D01*
X83920943Y-57186920D01*
X83920945Y-57186920D01*
X84079055Y-57186920D01*
X84079057Y-57186920D01*
X84231784Y-57145997D01*
X84368716Y-57066940D01*
X84480520Y-56955136D01*
X84522801Y-56881902D01*
X93159500Y-56881902D01*
X93159500Y-57118097D01*
X93196446Y-57351368D01*
X93269433Y-57575996D01*
X93356005Y-57745902D01*
X93376657Y-57786433D01*
X93515483Y-57977510D01*
X93682490Y-58144517D01*
X93873567Y-58283343D01*
X93972510Y-58333757D01*
X94084003Y-58390566D01*
X94084005Y-58390566D01*
X94084008Y-58390568D01*
X94150360Y-58412127D01*
X94308631Y-58463553D01*
X94541903Y-58500500D01*
X94541908Y-58500500D01*
X94778097Y-58500500D01*
X95011368Y-58463553D01*
X95049808Y-58451063D01*
X95235992Y-58390568D01*
X95446433Y-58283343D01*
X95637510Y-58144517D01*
X95804517Y-57977510D01*
X95943343Y-57786433D01*
X96050568Y-57575992D01*
X96123553Y-57351368D01*
X96129117Y-57316239D01*
X96160500Y-57118097D01*
X96160500Y-56881902D01*
X96131318Y-56697661D01*
X96123553Y-56648632D01*
X96082547Y-56522433D01*
X96080553Y-56452593D01*
X96112796Y-56396437D01*
X96557098Y-55952135D01*
X100759500Y-55952135D01*
X100759500Y-58047870D01*
X100759501Y-58047876D01*
X100765908Y-58107483D01*
X100816202Y-58242328D01*
X100816206Y-58242335D01*
X100902452Y-58357544D01*
X100902455Y-58357547D01*
X101017664Y-58443793D01*
X101017671Y-58443797D01*
X101152517Y-58494091D01*
X101152516Y-58494091D01*
X101159444Y-58494835D01*
X101212127Y-58500500D01*
X103307872Y-58500499D01*
X103367483Y-58494091D01*
X103502331Y-58443796D01*
X103617546Y-58357546D01*
X103703796Y-58242331D01*
X103754091Y-58107483D01*
X103760500Y-58047873D01*
X103760499Y-55952128D01*
X103754091Y-55892517D01*
X103740278Y-55855483D01*
X103703797Y-55757671D01*
X103703793Y-55757664D01*
X103617547Y-55642455D01*
X103617544Y-55642452D01*
X103502335Y-55556206D01*
X103502328Y-55556202D01*
X103367482Y-55505908D01*
X103367483Y-55505908D01*
X103307883Y-55499501D01*
X103307881Y-55499500D01*
X103307873Y-55499500D01*
X103307864Y-55499500D01*
X101212129Y-55499500D01*
X101212123Y-55499501D01*
X101152516Y-55505908D01*
X101017671Y-55556202D01*
X101017664Y-55556206D01*
X100902455Y-55642452D01*
X100902452Y-55642455D01*
X100816206Y-55757664D01*
X100816202Y-55757671D01*
X100765908Y-55892517D01*
X100759501Y-55952116D01*
X100759501Y-55952123D01*
X100759500Y-55952135D01*
X96557098Y-55952135D01*
X99872416Y-52636819D01*
X99933739Y-52603334D01*
X99960097Y-52600500D01*
X111965234Y-52600500D01*
X112032273Y-52620185D01*
X112034125Y-52621398D01*
X112165814Y-52709390D01*
X112165827Y-52709397D01*
X112303360Y-52766364D01*
X112311503Y-52769737D01*
X112466153Y-52800499D01*
X112466156Y-52800500D01*
X112466158Y-52800500D01*
X112623844Y-52800500D01*
X112623845Y-52800499D01*
X112778497Y-52769737D01*
X112924179Y-52709394D01*
X113055289Y-52621789D01*
X113166789Y-52510289D01*
X113254394Y-52379179D01*
X113314737Y-52233497D01*
X113345500Y-52078842D01*
X113345500Y-51921158D01*
X113345500Y-51921155D01*
X113345499Y-51921153D01*
X113314738Y-51766510D01*
X113314737Y-51766503D01*
X113258728Y-51631284D01*
X113254397Y-51620827D01*
X113254390Y-51620814D01*
X113166789Y-51489711D01*
X113166786Y-51489707D01*
X113055292Y-51378213D01*
X113055288Y-51378210D01*
X112924185Y-51290609D01*
X112924172Y-51290602D01*
X112778501Y-51230264D01*
X112778489Y-51230261D01*
X112623845Y-51199500D01*
X112623842Y-51199500D01*
X112466158Y-51199500D01*
X112466155Y-51199500D01*
X112311510Y-51230261D01*
X112311498Y-51230264D01*
X112165827Y-51290602D01*
X112165814Y-51290609D01*
X112034125Y-51378602D01*
X111967447Y-51399480D01*
X111965234Y-51399500D01*
X99746669Y-51399500D01*
X99746653Y-51399499D01*
X99739057Y-51399499D01*
X99580943Y-51399499D01*
X99473587Y-51428265D01*
X99428210Y-51440424D01*
X99428209Y-51440425D01*
X99387416Y-51463978D01*
X99387414Y-51463979D01*
X99291290Y-51519475D01*
X99291282Y-51519481D01*
X99179478Y-51631286D01*
X95263563Y-55547200D01*
X95202240Y-55580685D01*
X95137564Y-55577450D01*
X95011370Y-55536447D01*
X94778097Y-55499500D01*
X94778092Y-55499500D01*
X94541908Y-55499500D01*
X94541903Y-55499500D01*
X94308631Y-55536446D01*
X94084003Y-55609433D01*
X93873566Y-55716657D01*
X93817119Y-55757669D01*
X93682490Y-55855483D01*
X93682488Y-55855485D01*
X93682487Y-55855485D01*
X93515485Y-56022487D01*
X93515485Y-56022488D01*
X93515483Y-56022490D01*
X93462790Y-56095016D01*
X93376657Y-56213566D01*
X93269433Y-56424003D01*
X93196446Y-56648631D01*
X93159500Y-56881902D01*
X84522801Y-56881902D01*
X84559577Y-56818204D01*
X84600500Y-56665477D01*
X84600500Y-56079342D01*
X84603247Y-56054262D01*
X84603376Y-56052790D01*
X84602927Y-56042516D01*
X84601307Y-56005404D01*
X84601307Y-55994589D01*
X84603162Y-55952123D01*
X84603376Y-55947211D01*
X84603249Y-55945760D01*
X84600500Y-55920657D01*
X84600500Y-52837085D01*
X84620185Y-52770046D01*
X84672989Y-52724291D01*
X84677048Y-52722524D01*
X84820200Y-52663229D01*
X84820200Y-52663228D01*
X84820212Y-52663224D01*
X85030289Y-52541936D01*
X85222738Y-52394265D01*
X85394265Y-52222738D01*
X85541936Y-52030289D01*
X85663224Y-51820212D01*
X85756054Y-51596100D01*
X85818838Y-51361789D01*
X85850500Y-51121288D01*
X85850500Y-50878712D01*
X85818838Y-50638211D01*
X85756054Y-50403900D01*
X85754231Y-50399500D01*
X85744195Y-50375269D01*
X85663224Y-50179788D01*
X85541936Y-49969711D01*
X85394265Y-49777262D01*
X85394260Y-49777256D01*
X85222743Y-49605739D01*
X85222736Y-49605733D01*
X85030293Y-49458067D01*
X85030292Y-49458066D01*
X85030289Y-49458064D01*
X84820212Y-49336776D01*
X84820205Y-49336773D01*
X84596104Y-49243947D01*
X84361785Y-49181161D01*
X84121289Y-49149500D01*
X84121288Y-49149500D01*
X83878712Y-49149500D01*
X83878711Y-49149500D01*
X83638214Y-49181161D01*
X83403895Y-49243947D01*
X83179794Y-49336773D01*
X83179785Y-49336777D01*
X82969706Y-49458067D01*
X82777263Y-49605733D01*
X82777256Y-49605739D01*
X82605739Y-49777256D01*
X82605733Y-49777263D01*
X82458067Y-49969706D01*
X82336777Y-50179785D01*
X82336770Y-50179799D01*
X82277476Y-50322952D01*
X82233636Y-50377356D01*
X82167342Y-50399421D01*
X82162915Y-50399500D01*
X78624500Y-50399500D01*
X78557461Y-50379815D01*
X78511706Y-50327011D01*
X78500500Y-50275500D01*
X78500500Y-46724500D01*
X78520185Y-46657461D01*
X78572989Y-46611706D01*
X78624500Y-46600500D01*
X83579055Y-46600500D01*
X83579057Y-46600500D01*
X83731784Y-46559577D01*
X83805334Y-46517112D01*
X83867334Y-46500500D01*
X157858118Y-46500500D01*
X157925157Y-46520185D01*
G37*
%TD.AperFunction*%
%TA.AperFunction,NonConductor*%
G36*
X144392614Y-58218675D02*
G01*
X144432872Y-58275781D01*
X144439500Y-58315780D01*
X144439500Y-71397696D01*
X144439499Y-71397714D01*
X144439499Y-71430902D01*
X144419814Y-71497941D01*
X144367010Y-71543696D01*
X144297852Y-71553640D01*
X144234296Y-71524615D01*
X144227818Y-71518583D01*
X131694574Y-58985339D01*
X131661089Y-58924016D01*
X131660637Y-58921847D01*
X131656031Y-58898689D01*
X131662260Y-58829098D01*
X131705124Y-58773921D01*
X131771014Y-58750678D01*
X131777649Y-58750500D01*
X142413331Y-58750500D01*
X142413347Y-58750501D01*
X142420943Y-58750501D01*
X142579054Y-58750501D01*
X142579057Y-58750501D01*
X142731785Y-58709577D01*
X142796153Y-58672414D01*
X142868716Y-58630520D01*
X142980520Y-58518716D01*
X142980520Y-58518714D01*
X142990724Y-58508511D01*
X142990728Y-58508506D01*
X143165478Y-58333755D01*
X143226799Y-58300272D01*
X143291473Y-58303506D01*
X143333757Y-58317246D01*
X143543713Y-58350500D01*
X143543714Y-58350500D01*
X143756286Y-58350500D01*
X143756287Y-58350500D01*
X143966243Y-58317246D01*
X144168412Y-58251557D01*
X144259204Y-58205295D01*
X144327874Y-58192399D01*
X144392614Y-58218675D01*
G37*
%TD.AperFunction*%
M02*
