%TF.GenerationSoftware,KiCad,Pcbnew,10.0.6*%
%TF.CreationDate,2026-09-18T17:57:53+05:30*%
%TF.ProjectId,blare,556e7469-746c-4656-942e-6b696361645f,rev?*%
%TF.SameCoordinates,Original*%
%TF.FileFunction,Legend,Bot*%
%TF.FilePolarity,Positive*%
%FSLAX46Y46*%
G04 Gerber Fmt 4.6, Leading zero omitted, Abs format (unit mm)*
G04 Created by KiCad (PCBNEW 10.0.6) date 2026-09-18 17:57:53*
%MOMM*%
%LPD*%
G01*
G04 APERTURE LIST*
%ADD10C,0.106680*%
%ADD11C,0.150000*%
%ADD12C,0.100000*%
%ADD13C,0.127000*%
%ADD14C,0.504000*%
%ADD15C,0.120000*%
G04 APERTURE END LIST*
D10*
X123251549Y-44832391D02*
X123251549Y-45465698D01*
X123251549Y-45465698D02*
X123214296Y-45540204D01*
X123214296Y-45540204D02*
X123177042Y-45577458D01*
X123177042Y-45577458D02*
X123102536Y-45614711D01*
X123102536Y-45614711D02*
X122953522Y-45614711D01*
X122953522Y-45614711D02*
X122879016Y-45577458D01*
X122879016Y-45577458D02*
X122841762Y-45540204D01*
X122841762Y-45540204D02*
X122804509Y-45465698D01*
X122804509Y-45465698D02*
X122804509Y-44832391D01*
X122022189Y-45614711D02*
X122469229Y-45614711D01*
X122245709Y-45614711D02*
X122245709Y-44832391D01*
X122245709Y-44832391D02*
X122320216Y-44944151D01*
X122320216Y-44944151D02*
X122394723Y-45018658D01*
X122394723Y-45018658D02*
X122469229Y-45055911D01*
D11*
X158574819Y-56666666D02*
X159289104Y-56666666D01*
X159289104Y-56666666D02*
X159431961Y-56619047D01*
X159431961Y-56619047D02*
X159527200Y-56523809D01*
X159527200Y-56523809D02*
X159574819Y-56380952D01*
X159574819Y-56380952D02*
X159574819Y-56285714D01*
X159574819Y-57666666D02*
X159574819Y-57095238D01*
X159574819Y-57380952D02*
X158574819Y-57380952D01*
X158574819Y-57380952D02*
X158717676Y-57285714D01*
X158717676Y-57285714D02*
X158812914Y-57190476D01*
X158812914Y-57190476D02*
X158860533Y-57095238D01*
X99340952Y-49731009D02*
X99198095Y-49778628D01*
X99198095Y-49778628D02*
X99150476Y-49826247D01*
X99150476Y-49826247D02*
X99102857Y-49921485D01*
X99102857Y-49921485D02*
X99102857Y-50064342D01*
X99102857Y-50064342D02*
X99150476Y-50159580D01*
X99150476Y-50159580D02*
X99198095Y-50207200D01*
X99198095Y-50207200D02*
X99293333Y-50254819D01*
X99293333Y-50254819D02*
X99674285Y-50254819D01*
X99674285Y-50254819D02*
X99674285Y-49254819D01*
X99674285Y-49254819D02*
X99340952Y-49254819D01*
X99340952Y-49254819D02*
X99245714Y-49302438D01*
X99245714Y-49302438D02*
X99198095Y-49350057D01*
X99198095Y-49350057D02*
X99150476Y-49445295D01*
X99150476Y-49445295D02*
X99150476Y-49540533D01*
X99150476Y-49540533D02*
X99198095Y-49635771D01*
X99198095Y-49635771D02*
X99245714Y-49683390D01*
X99245714Y-49683390D02*
X99340952Y-49731009D01*
X99340952Y-49731009D02*
X99674285Y-49731009D01*
X98769523Y-49254819D02*
X98102857Y-49254819D01*
X98102857Y-49254819D02*
X98769523Y-50254819D01*
X98769523Y-50254819D02*
X98102857Y-50254819D01*
X97198095Y-50254819D02*
X97769523Y-50254819D01*
X97483809Y-50254819D02*
X97483809Y-49254819D01*
X97483809Y-49254819D02*
X97579047Y-49397676D01*
X97579047Y-49397676D02*
X97674285Y-49492914D01*
X97674285Y-49492914D02*
X97769523Y-49540533D01*
X102650951Y-54533866D02*
X101889047Y-54533866D01*
X102269999Y-54914819D02*
X102269999Y-54152914D01*
%TO.C,U1*%
D12*
X112840000Y-65065000D02*
X112840000Y-47920000D01*
X114745000Y-46015000D02*
X128715000Y-46015000D01*
D13*
X117226000Y-45005000D02*
X117226000Y-46015000D01*
X125721272Y-44505000D02*
X117726000Y-44505000D01*
X126225000Y-46015000D02*
X126221272Y-45004728D01*
D12*
X128715000Y-66970000D02*
X114745000Y-66970000D01*
X130620000Y-65065000D02*
X130620000Y-47920000D01*
X112840000Y-47920000D02*
G75*
G02*
X114745000Y-46015000I1905000J0D01*
G01*
X114745000Y-66970000D02*
G75*
G02*
X112840000Y-65065000I0J1905000D01*
G01*
D13*
X117226000Y-45005000D02*
G75*
G02*
X117726000Y-44505000I500000J0D01*
G01*
X125721272Y-44505000D02*
G75*
G02*
X126221270Y-45004728I-22J-500020D01*
G01*
D12*
X128715000Y-46011000D02*
G75*
G02*
X130620000Y-47916000I0J-1905000D01*
G01*
X130620000Y-65065000D02*
G75*
G02*
X128715000Y-66970000I-1905001J1D01*
G01*
D14*
X129939000Y-47311000D02*
G75*
G02*
X129435000Y-47311000I-252000J0D01*
G01*
X129435000Y-47311000D02*
G75*
G02*
X129939000Y-47311000I252000J0D01*
G01*
X131082000Y-46431000D02*
G75*
G02*
X130578000Y-46431000I-252000J0D01*
G01*
X130578000Y-46431000D02*
G75*
G02*
X131082000Y-46431000I252000J0D01*
G01*
%TO.C,J1*%
D15*
X137240000Y-58330000D02*
X137240000Y-55670000D01*
X155080000Y-55670000D02*
X137240000Y-55670000D01*
X155080000Y-58330000D02*
X137240000Y-58330000D01*
X155080000Y-58330000D02*
X155080000Y-55670000D01*
X157680000Y-55670000D02*
X156350000Y-55670000D01*
X157680000Y-57000000D02*
X157680000Y-55670000D01*
%TO.C,BZ1*%
X104560000Y-57000000D02*
G75*
G02*
X92360000Y-57000000I-6100000J0D01*
G01*
X92360000Y-57000000D02*
G75*
G02*
X104560000Y-57000000I6100000J0D01*
G01*
%TD*%
M02*
